<svg xmlns="http://www.w3.org/2000/svg" xml:space="preserve" viewBox="0 0 1781.37 796.57"><path d="M348.17 506.3c-1.68-.71-3.43-1.33-5.2-1.91 7.38-3.9 13.31-9.16 17.73-15.8 4.9-7.36 7.36-16.03 7.36-26.02q0-22.335-18.12-35.97c-12.08-9.08-30.11-13.62-54.08-13.62h-93.18v190.73h98.63c25.07 0 44.05-4.59 56.95-13.76s19.35-21.93 19.35-38.28c-.01-11.08-2.6-20.44-7.78-28.07s-12.4-13.39-21.66-17.3m-101.63-60.07h43.87v-.01c10.72 0 18.94 1.86 24.66 5.59s8.58 9.31 8.58 16.76c0 7.63-2.86 13.31-8.58 17.03-5.72 3.73-13.94 5.59-24.66 5.59h-43.87zm77.52 118.65c-5.9 3.73-14.58 5.59-26.02 5.59h-51.5v-47.14h51.5c11.44 0 20.12 1.95 26.02 5.86s8.86 9.86 8.86 17.85c-.01 8.17-2.96 14.12-8.86 17.84m505.87-45.69 61.05-62.07H840.3l-62.12 58.91V412.98h-42.5v190.73h42.5v-37.2l20.54-20.19 46.22 57.39h51.49zm-149.72-57.3c-9.17-4.63-19.58-6.95-31.2-6.95-12.53 0-23.7 2.64-33.51 7.9-5.79 3.11-10.78 7.04-14.99 11.73v-17.46h-40.6V603.7h42.5v-72.48c0-9.08 1.5-16.53 4.5-22.34s7.17-10.12 12.53-12.94c5.36-2.81 11.4-4.22 18.12-4.22 9.44 0 16.76 2.82 21.93 8.45q7.77 8.445 7.77 26.16v77.38h42.5v-83.92c.01-14.89-2.62-27.11-7.89-36.65s-12.49-16.62-21.66-21.25m-164.73 8.86c-12.35-10.53-29.7-15.8-52.04-15.8-11.63 0-23.07 1.55-34.33 4.63-11.26 3.09-20.89 7.45-28.88 13.08l15.26 29.7c5.27-4.18 11.67-7.49 19.21-9.95 7.54-2.45 15.21-3.68 23.02-3.68 11.44 0 19.93 2.55 25.48 7.63 5.54 5.09 8.31 12.17 8.31 21.25h-33.79c-14.9 0-26.97 1.86-36.24 5.59-9.26 3.73-16.03 8.86-20.3 15.39-4.27 6.54-6.4 14.17-6.4 22.89 0 8.36 2.18 15.9 6.54 22.61 4.36 6.72 10.63 12.04 18.8 15.94s17.98 5.86 29.43 5.86c12.9 0 23.43-2.45 31.61-7.36 5.54-3.32 9.88-7.71 13.08-13.11v18.29h39.78v-83.65c-.01-22.34-6.19-38.78-18.54-49.31m-23.96 86.65c-2.56 6.53-6.65 11.48-12.27 14.84-5.63 3.36-11.99 5.04-19.07 5.04-7.45 0-13.31-1.59-17.57-4.77-4.27-3.18-6.4-7.49-6.4-12.94 0-4.9 1.86-8.99 5.59-12.26 3.72-3.27 10.58-4.9 20.57-4.9h29.15z" style="fill:#fff"/><path d="M796.43 353.07q-8.445 0-13.35-5.04c-3.27-3.36-4.9-8.13-4.9-14.3v-62.94h36.51v-32.7h-36.51V194h-42.5v140.28c0 17.44 4.81 30.56 14.44 39.37s23.07 13.21 40.32 13.21c6.54 0 12.85-.77 18.94-2.32 6.08-1.54 11.31-3.86 15.67-6.95l-11.45-29.97c-4.73 3.64-10.45 5.45-17.17 5.45M678.97 245.04c-11.54-6.08-24.48-9.13-38.83-9.13-14.9 0-28.25 3.23-40.05 9.67q-17.715 9.675-27.93 26.7c-6.81 11.35-10.22 24.39-10.22 39.1 0 14.53 3.45 27.48 10.35 38.83s16.66 20.3 29.29 26.84c12.62 6.54 27.29 9.81 44 9.81 13.26 0 24.97-2.04 35.15-6.13 10.17-4.09 18.62-9.95 25.34-17.57l-22.61-24.52c-4.9 4.73-10.31 8.27-16.21 10.63s-12.76 3.54-20.57 3.54c-8.72 0-16.31-1.59-22.75-4.77-6.45-3.18-11.44-7.81-14.99-13.9-1.92-3.3-3.31-6.9-4.18-10.76h110.85c.18-1.81.36-3.77.54-5.86s.27-3.95.27-5.59c.01-15.8-3.36-29.38-10.07-40.73-6.72-11.35-15.85-20.07-27.38-26.16m-74.75 53.53c.71-4.57 2.05-8.7 4.04-12.4 3.08-5.71 7.4-10.16 12.94-13.34s11.94-4.77 19.21-4.77c7.26 0 13.62 1.59 19.07 4.77s9.72 7.59 12.81 13.21c2.05 3.74 3.4 7.92 4.09 12.53zm-91.32-55.71c-9.17-4.63-19.58-6.95-31.2-6.95-12.53 0-23.7 2.64-33.51 7.9-4.93 2.65-9.29 5.88-13.08 9.68V194h-42.5v190.68h42.5V312.2c0-9.08 1.5-16.53 4.5-22.34s7.17-10.12 12.53-12.94c5.36-2.81 11.4-4.22 18.12-4.22 9.44 0 16.76 2.82 21.93 8.45q7.77 8.445 7.77 26.16v77.38h42.5v-83.92c0-14.9-2.64-27.12-7.9-36.66-5.27-9.54-12.49-16.62-21.66-21.25m-260.38 2.31c5.45-5.45 11.9-9.62 19.35-12.53 7.44-2.9 15.62-4.36 24.52-4.36 9.45 0 18.16 1.87 26.16 5.59 7.99 3.73 15.26 9.31 21.8 16.76l28.34-26.16c-9.09-11.07-20.3-19.48-33.65-25.2q-20.025-8.58-44.82-8.58c-14.89 0-28.61 2.41-41.14 7.22s-23.48 11.67-32.83 20.57c-9.36 8.9-16.62 19.34-21.8 31.33s-7.77 25.16-7.77 39.51q0 21.525 7.77 39.51c5.18 11.98 12.4 22.43 21.66 31.33s20.2 15.76 32.83 20.57 26.3 7.22 41.01 7.22c16.71 0 31.74-2.92 45.09-8.73s24.56-14.26 33.65-25.34l-28.34-26.16c-6.54 7.63-13.81 13.31-21.8 17.03-8 3.73-16.72 5.59-26.16 5.59-8.9 0-17.07-1.45-24.52-4.36-7.46-2.9-13.9-7.08-19.35-12.53s-9.67-11.9-12.67-19.35c-3-7.44-4.5-15.7-4.5-24.79 0-9.08 1.5-17.34 4.5-24.79s7.22-13.9 12.67-19.35m1125.07.41c-12.17-6.44-25.97-9.67-41.41-9.67-15.62 0-29.47 3.22-41.55 9.67s-21.62 15.35-28.61 26.7c-6.99 11.36-10.49 24.39-10.49 39.1 0 14.54 3.5 27.48 10.49 38.83 6.99 11.36 16.53 20.3 28.61 26.84q18.12 9.81 41.55 9.81c15.44 0 29.24-3.27 41.41-9.8 12.17-6.54 21.7-15.49 28.61-26.84 6.9-11.35 10.35-24.3 10.35-38.83q0-22.35-10.35-39.24c-6.91-11.27-16.44-20.12-28.61-26.57m-8.99 87.47c-3.27 6.09-7.72 10.76-13.35 14.03s-11.99 4.9-19.07 4.9-13.44-1.63-19.07-4.9c-5.64-3.27-10.13-7.94-13.49-14.03q-5.04-9.12-5.04-21.66c0-8.54 1.68-15.81 5.04-21.8 3.36-6 7.86-10.63 13.49-13.9s11.99-4.9 19.07-4.9 13.44 1.63 19.07 4.9 10.08 7.91 13.35 13.9c3.27 6 4.9 13.26 4.9 21.8 0 8.36-1.63 15.58-4.9 21.66M1548.18 194v59.4c-3.37-3.69-7.19-6.8-11.44-9.31-9.26-5.45-20.07-8.17-32.42-8.17-13.81 0-26.25 3.09-37.33 9.26-11.08 6.18-19.85 14.9-26.29 26.16-6.45 11.26-9.67 24.62-9.67 40.05 0 15.26 3.22 28.52 9.67 39.78s15.21 20.03 26.29 26.29c11.08 6.27 23.52 9.4 37.33 9.4 12.9 0 23.93-2.72 33.1-8.17 4.81-2.86 9.03-6.51 12.67-10.95v16.94h40.6V194zm-4.22 139.05c-3.36 6.09-7.86 10.76-13.49 14.03s-11.9 4.9-18.8 4.9c-7.08 0-13.44-1.63-19.07-4.9s-10.13-7.94-13.49-14.03q-5.04-9.12-5.04-21.66c0-8.54 1.68-15.8 5.04-21.8 3.36-5.99 7.85-10.63 13.49-13.9 5.63-3.27 11.99-4.9 19.07-4.9 6.9 0 13.17 1.63 18.8 4.9s10.12 7.9 13.49 13.9c3.36 5.99 5.04 13.26 5.04 21.8 0 8.35-1.69 15.57-5.04 21.66m-597.21 227.2c-5.09-4.81-11.35-7.22-18.8-7.22-7.26 0-13.48 2.41-18.66 7.22-5.18 4.82-7.77 11.13-7.77 18.94s2.59 14.22 7.77 19.21c5.17 5 11.39 7.49 18.66 7.49 7.44 0 13.71-2.5 18.8-7.49 5.08-4.99 7.63-11.4 7.63-19.21s-2.55-14.12-7.63-18.94m98.68-322.16-35.61 99.31-34.96-99.31h-35.97l-36.03 99.31-34.53-99.31h-40.06l52.86 146.59H922l33.95-91.07 32.81 91.07h41.14l53.13-146.59zm156.67 7.49c-12.17-6.44-25.97-9.67-41.41-9.67-15.62 0-29.47 3.22-41.55 9.67s-21.62 15.35-28.61 26.7c-6.99 11.36-10.49 24.39-10.49 39.1 0 14.54 3.5 27.48 10.49 38.83 6.99 11.36 16.53 20.3 28.61 26.84q18.12 9.81 41.55 9.81c15.44 0 29.24-3.27 41.41-9.8 12.17-6.54 21.7-15.49 28.61-26.84 6.9-11.35 10.35-24.3 10.35-38.83q0-22.35-10.35-39.24c-6.91-11.27-16.44-20.12-28.61-26.57m-8.99 87.47c-3.27 6.09-7.72 10.76-13.35 14.03s-11.99 4.9-19.07 4.9-13.44-1.63-19.07-4.9c-5.64-3.27-10.13-7.94-13.49-14.03q-5.04-9.12-5.04-21.66c0-8.54 1.68-15.81 5.04-21.8 3.36-6 7.86-10.63 13.49-13.9s11.99-4.9 19.07-4.9 13.44 1.63 19.07 4.9 10.08 7.91 13.35 13.9c3.27 6 4.9 13.26 4.9 21.8 0 8.36-1.63 15.58-4.9 21.66" style="fill:#003232"/></svg>