<svg width="1401" height="416" viewBox="0 0 1401 416" fill="none" xmlns="http://www.w3.org/2000/svg">
<path d="M158.17 316.3C156.49 315.59 154.74 314.97 152.97 314.39C160.35 310.49 166.28 305.23 170.7 298.59C175.6 291.23 178.06 282.56 178.06 272.57C178.06 257.68 172.02 245.69 159.94 236.6C147.86 227.52 129.83 222.98 105.86 222.98H12.6799V413.71H111.31C136.38 413.71 155.36 409.12 168.26 399.95C181.16 390.78 187.61 378.02 187.61 361.67C187.6 350.59 185.01 341.23 179.83 333.6C174.65 325.97 167.43 320.21 158.17 316.3ZM56.5399 256.23H100.41V256.22C111.13 256.22 119.35 258.08 125.07 261.81C130.79 265.54 133.65 271.12 133.65 278.57C133.65 286.2 130.79 291.88 125.07 295.6C119.35 299.33 111.13 301.19 100.41 301.19H56.5399V256.23ZM134.06 374.88C128.16 378.61 119.48 380.47 108.04 380.47H56.5399V333.33H108.04C119.48 333.33 128.16 335.28 134.06 339.19C139.96 343.1 142.92 349.05 142.92 357.04C142.91 365.21 139.96 371.16 134.06 374.88ZM639.93 329.19L700.98 267.12H650.3L588.18 326.03V222.98H545.68V413.71H588.18V376.51L608.72 356.32L654.94 413.71H706.43L639.93 329.19ZM490.21 271.89C481.04 267.26 470.63 264.94 459.01 264.94C446.48 264.94 435.31 267.58 425.5 272.84C419.71 275.95 414.72 279.88 410.51 284.57V267.11H369.91V413.7H412.41V341.22C412.41 332.14 413.91 324.69 416.91 318.88C419.91 313.07 424.08 308.76 429.44 305.94C434.8 303.13 440.84 301.72 447.56 301.72C457 301.72 464.32 304.54 469.49 310.17C474.67 315.8 477.26 324.52 477.26 336.33V413.71H519.76V329.79C519.77 314.9 517.14 302.68 511.87 293.14C506.6 283.6 499.38 276.52 490.21 271.89ZM325.48 280.75C313.13 270.22 295.78 264.95 273.44 264.95C261.81 264.95 250.37 266.5 239.11 269.58C227.85 272.67 218.22 277.03 210.23 282.66L225.49 312.36C230.76 308.18 237.16 304.87 244.7 302.41C252.24 299.96 259.91 298.73 267.72 298.73C279.16 298.73 287.65 301.28 293.2 306.36C298.74 311.45 301.51 318.53 301.51 327.61H267.72C252.82 327.61 240.75 329.47 231.48 333.2C222.22 336.93 215.45 342.06 211.18 348.59C206.91 355.13 204.78 362.76 204.78 371.48C204.78 379.84 206.96 387.38 211.32 394.09C215.68 400.81 221.95 406.13 230.12 410.03C238.29 413.93 248.1 415.89 259.55 415.89C272.45 415.89 282.98 413.44 291.16 408.53C296.7 405.21 301.04 400.82 304.24 395.42V413.71H344.02V330.06C344.01 307.72 337.83 291.28 325.48 280.75ZM301.52 367.4C298.96 373.93 294.87 378.88 289.25 382.24C283.62 385.6 277.26 387.28 270.18 387.28C262.73 387.28 256.87 385.69 252.61 382.51C248.34 379.33 246.21 375.02 246.21 369.57C246.21 364.67 248.07 360.58 251.8 357.31C255.52 354.04 262.38 352.41 272.37 352.41H301.52V367.4Z" fill="white"/>
<path d="M606.43 163.07C600.8 163.07 596.35 161.39 593.08 158.03C589.81 154.67 588.18 149.9 588.18 143.73V80.7904H624.69V48.0904H588.18V4.00043H545.68V144.28C545.68 161.72 550.49 174.84 560.12 183.65C569.75 192.46 583.19 196.86 600.44 196.86C606.98 196.86 613.29 196.09 619.38 194.54C625.46 193 630.69 190.68 635.05 187.59L623.6 157.62C618.87 161.26 613.15 163.07 606.43 163.07ZM488.97 55.0404C477.43 48.9604 464.49 45.9104 450.14 45.9104C435.24 45.9104 421.89 49.1404 410.09 55.5804C398.28 62.0304 388.97 70.9304 382.16 82.2804C375.35 93.6304 371.94 106.67 371.94 121.38C371.94 135.91 375.39 148.86 382.29 160.21C389.19 171.56 398.95 180.51 411.58 187.05C424.2 193.59 438.87 196.86 455.58 196.86C468.84 196.86 480.55 194.82 490.73 190.73C500.9 186.64 509.35 180.78 516.07 173.16L493.46 148.64C488.56 153.37 483.15 156.91 477.25 159.27C471.35 161.63 464.49 162.81 456.68 162.81C447.96 162.81 440.37 161.22 433.93 158.04C427.48 154.86 422.49 150.23 418.94 144.14C417.02 140.84 415.63 137.24 414.76 133.38H525.61C525.79 131.57 525.97 129.61 526.15 127.52C526.33 125.43 526.42 123.57 526.42 121.93C526.43 106.13 523.06 92.5504 516.35 81.2004C509.63 69.8504 500.5 61.1304 488.97 55.0404ZM414.22 108.57C414.93 104 416.27 99.8704 418.26 96.1704C421.34 90.4604 425.66 86.0104 431.2 82.8304C436.74 79.6504 443.14 78.0604 450.41 78.0604C457.67 78.0604 464.03 79.6504 469.48 82.8304C474.93 86.0104 479.2 90.4204 482.29 96.0404C484.34 99.7804 485.69 103.96 486.38 108.57H414.22ZM322.9 52.8604C313.73 48.2304 303.32 45.9104 291.7 45.9104C279.17 45.9104 268 48.5504 258.19 53.8104C253.26 56.4604 248.9 59.6904 245.11 63.4904V4.00043H202.61V194.68H245.11V122.2C245.11 113.12 246.61 105.67 249.61 99.8604C252.61 94.0504 256.78 89.7404 262.14 86.9204C267.5 84.1104 273.54 82.7004 280.26 82.7004C289.7 82.7004 297.02 85.5204 302.19 91.1504C307.37 96.7804 309.96 105.5 309.96 117.31V194.69H352.46V110.77C352.46 95.8704 349.82 83.6504 344.56 74.1104C339.29 64.5704 332.07 57.4904 322.9 52.8604ZM62.5199 55.1704C67.9699 49.7204 74.4199 45.5504 81.8699 42.6404C89.3099 39.7404 97.49 38.2804 106.39 38.2804C115.84 38.2804 124.55 40.1504 132.55 43.8704C140.54 47.6004 147.81 53.1804 154.35 60.6304L182.69 34.4704C173.6 23.4004 162.39 14.9904 149.04 9.27043C135.69 3.55043 120.75 0.69043 104.22 0.69043C89.3299 0.69043 75.6099 3.10043 63.0799 7.91043C50.5499 12.7204 39.5999 19.5804 30.2499 28.4804C20.8899 37.3804 13.6299 47.8204 8.44994 59.8104C3.26994 71.8004 0.679932 84.9704 0.679932 99.3204C0.679932 113.67 3.26994 126.84 8.44994 138.83C13.6299 150.81 20.8499 161.26 30.1099 170.16C39.3699 179.06 50.3099 185.92 62.9399 190.73C75.5699 195.54 89.24 197.95 103.95 197.95C120.66 197.95 135.69 195.03 149.04 189.22C162.39 183.41 173.6 174.96 182.69 163.88L154.35 137.72C147.81 145.35 140.54 151.03 132.55 154.75C124.55 158.48 115.83 160.34 106.39 160.34C97.49 160.34 89.3199 158.89 81.8699 155.98C74.4099 153.08 67.9699 148.9 62.5199 143.45C57.0699 138 52.8499 131.55 49.8499 124.1C46.8499 116.66 45.3499 108.4 45.3499 99.3104C45.3499 90.2304 46.8499 81.9704 49.8499 74.5204C52.8499 67.0704 57.0699 60.6204 62.5199 55.1704ZM1187.59 55.5804C1175.42 49.1404 1161.62 45.9104 1146.18 45.9104C1130.56 45.9104 1116.71 49.1304 1104.63 55.5804C1092.55 62.0304 1083.01 70.9304 1076.02 82.2804C1069.03 93.6404 1065.53 106.67 1065.53 121.38C1065.53 135.92 1069.03 148.86 1076.02 160.21C1083.01 171.57 1092.55 180.51 1104.63 187.05C1116.71 193.59 1130.56 196.86 1146.18 196.86C1161.62 196.86 1175.42 193.59 1187.59 187.06C1199.76 180.52 1209.29 171.57 1216.2 160.22C1223.1 148.87 1226.55 135.92 1226.55 121.39C1226.55 106.49 1223.1 93.4104 1216.2 82.1504C1209.29 70.8804 1199.76 62.0304 1187.59 55.5804ZM1178.6 143.05C1175.33 149.14 1170.88 153.81 1165.25 157.08C1159.62 160.35 1153.26 161.98 1146.18 161.98C1139.1 161.98 1132.74 160.35 1127.11 157.08C1121.47 153.81 1116.98 149.14 1113.62 143.05C1110.26 136.97 1108.58 129.75 1108.58 121.39C1108.58 112.85 1110.26 105.58 1113.62 99.5904C1116.98 93.5904 1121.48 88.9604 1127.11 85.6904C1132.74 82.4204 1139.1 80.7904 1146.18 80.7904C1153.26 80.7904 1159.62 82.4204 1165.25 85.6904C1170.88 88.9604 1175.33 93.6004 1178.6 99.5904C1181.87 105.59 1183.5 112.85 1183.5 121.39C1183.5 129.75 1181.87 136.97 1178.6 143.05ZM1358.18 4.00043V63.4004C1354.81 59.7104 1350.99 56.6004 1346.74 54.0904C1337.48 48.6404 1326.67 45.9204 1314.32 45.9204C1300.51 45.9204 1288.07 49.0104 1276.99 55.1804C1265.91 61.3604 1257.14 70.0804 1250.7 81.3404C1244.25 92.6004 1241.03 105.96 1241.03 121.39C1241.03 136.65 1244.25 149.91 1250.7 161.17C1257.15 172.43 1265.91 181.2 1276.99 187.46C1288.07 193.73 1300.51 196.86 1314.32 196.86C1327.22 196.86 1338.25 194.14 1347.42 188.69C1352.23 185.83 1356.45 182.18 1360.09 177.74V194.68H1400.69V4.00043H1358.18ZM1353.96 143.05C1350.6 149.14 1346.1 153.81 1340.47 157.08C1334.84 160.35 1328.57 161.98 1321.67 161.98C1314.59 161.98 1308.23 160.35 1302.6 157.08C1296.97 153.81 1292.47 149.14 1289.11 143.05C1285.75 136.97 1284.07 129.75 1284.07 121.39C1284.07 112.85 1285.75 105.59 1289.11 99.5904C1292.47 93.6004 1296.96 88.9604 1302.6 85.6904C1308.23 82.4204 1314.59 80.7904 1321.67 80.7904C1328.57 80.7904 1334.84 82.4204 1340.47 85.6904C1346.1 88.9604 1350.59 93.5904 1353.96 99.5904C1357.32 105.58 1359 112.85 1359 121.39C1359 129.74 1357.31 136.96 1353.96 143.05ZM756.75 370.25C751.66 365.44 745.4 363.03 737.95 363.03C730.69 363.03 724.47 365.44 719.29 370.25C714.11 375.07 711.52 381.38 711.52 389.19C711.52 397 714.11 403.41 719.29 408.4C724.46 413.4 730.68 415.89 737.95 415.89C745.39 415.89 751.66 413.39 756.75 408.4C761.83 403.41 764.38 397 764.38 389.19C764.38 381.38 761.83 375.07 756.75 370.25ZM855.43 48.0904L819.82 147.4L784.86 48.0904H748.89L712.86 147.4L678.33 48.0904H638.27L691.13 194.68H732L765.95 103.61L798.76 194.68H839.9L893.03 48.0904H855.43ZM1012.1 55.5804C999.93 49.1404 986.13 45.9104 970.69 45.9104C955.07 45.9104 941.22 49.1304 929.14 55.5804C917.06 62.0304 907.52 70.9304 900.53 82.2804C893.54 93.6404 890.04 106.67 890.04 121.38C890.04 135.92 893.54 148.86 900.53 160.21C907.52 171.57 917.06 180.51 929.14 187.05C941.22 193.59 955.07 196.86 970.69 196.86C986.13 196.86 999.93 193.59 1012.1 187.06C1024.27 180.52 1033.8 171.57 1040.71 160.22C1047.61 148.87 1051.06 135.92 1051.06 121.39C1051.06 106.49 1047.61 93.4104 1040.71 82.1504C1033.8 70.8804 1024.27 62.0304 1012.1 55.5804ZM1003.11 143.05C999.84 149.14 995.39 153.81 989.76 157.08C984.13 160.35 977.77 161.98 970.69 161.98C963.61 161.98 957.25 160.35 951.62 157.08C945.98 153.81 941.49 149.14 938.13 143.05C934.77 136.97 933.09 129.75 933.09 121.39C933.09 112.85 934.77 105.58 938.13 99.5904C941.49 93.5904 945.99 88.9604 951.62 85.6904C957.25 82.4204 963.61 80.7904 970.69 80.7904C977.77 80.7904 984.13 82.4204 989.76 85.6904C995.39 88.9604 999.84 93.6004 1003.11 99.5904C1006.38 105.59 1008.01 112.85 1008.01 121.39C1008.01 129.75 1006.38 136.97 1003.11 143.05Z" fill="#003232"/>
</svg>
