<svg id="Layer_1" data-name="Layer 1" xmlns="http://www.w3.org/2000/svg" viewBox="0 0 400 165.37"><defs><style>.cls-1{fill:#0fb4b4;}.cls-2{fill:#003246;}</style></defs><path class="cls-1" d="M22.73,50H0v66.7H22.73a33.1,33.1,0,0,0,24.05-9.77,31.82,31.82,0,0,0,10-23.58,31.85,31.85,0,0,0-10-23.58A33.1,33.1,0,0,0,22.73,50Zm13.58,47.3a17.76,17.76,0,0,1-13.58,5.68H14.94V63.67h7.79a17.76,17.76,0,0,1,13.58,5.68,19.71,19.71,0,0,1,5.3,14A19.71,19.71,0,0,1,36.31,97.25ZM176.64,50H163.11l-28.55,66.7h15.59l5.92-14.09h27.62l5.91,14.09h15.6ZM161.42,89.59l8.46-20,8.36,20Zm-49,1.6L80,50H67.16v66.7H82.1V75.41l32.5,41.24h12.87V50h-15Z" transform="translate(0 0)"/><path class="cls-2" d="M258.84,75.93c-6.6-1.33-11.55,1.55-16.26,4.83-3,2.09-7.16,7-7.16,7,3.29-5.4,4.24-8,4.58-9.38,1.09-4.62-4.09-5.18-5.8-1.9-6.39,12.28-16,30.76-22.8,48.77-1.93,5.07-8.64,24.93-10.7,34.17-1.57,7.06,3.64,7.93,5.23,2.26,6.68-23.89,8.89-33.2,18.53-51.31,10.5-19.74,23.32-31,31.11-29.7,9.29,1.51,8.46,15.09,1,24.43-9.91,12.45-21.44,8.9-24,2.49-1.83-4.58-6.06,2.39-1.19,7.87,6.81,7.68,24.41,7.36,33.7-12.13C269.13,94.84,270.5,78.27,258.84,75.93Zm134.84,5.89c-1.1-.61-2,.24-3.28,2.28C377.46,105,354.79,123,345.71,118c-7.69-4.23-8-14.93-4.82-27.76,15.26-14.93,30.08-33.6,37.2-42.33C387.7,36.13,407.71,5.81,396.86.71c-10-4.7-28.27,14.24-47,48-8.46,15.26-14,30.31-16.16,42.81-10,9.77-19,16.5-24.93,16.69-11.93.38-.36-15.54-3.81-18.1-2.22-1.64-3.44-.35-6.4,3.75-9.54,13.25-14.56,15.93-17.25,14.73-2.22-1-2.12-7.9,6.51-17.89,8.47-9.81,14-10.78,16.69-9.83,3.07,1.07.18,4.89,2.16,5.43,2.29.63,4.11-7.13-.28-9.66-7.1-4.1-18.2,3.58-24.21,10.21-6.18,6.81-13.88,22.38-6.63,25.68,11.9,5.42,21.77-12.19,21.77-12.19.06,8.48,2.74,9.78,5.69,10.93,7.4,2.89,18.4-3.6,29.87-13.58-1.06,12,1.58,20.85,8.39,23.82,20.81,9.07,49.85-32.45,51.82-35.95C393.78,84.36,395,82.56,393.68,81.82ZM359,46.63c13.13-25.1,31.51-43.09,35.52-40.5C397,7.71,392.8,22,373.68,45.81c-9.26,11.54-19.9,24.47-30.13,35.54C347.51,69.71,353.46,57.23,359,46.63Z" transform="translate(0 0)"/></svg>