<svg width="261" height="164" viewBox="0 0 261 164" fill="none" xmlns="http://www.w3.org/2000/svg">
<path d="M34.1409 144.63V159.187C30.3634 161.805 24.3704 163.72 19.4346 163.72C8.65731 163.72 0.548584 155.963 0.548584 145.69C0.548584 135.415 8.85878 127.76 20.0388 127.76C25.3272 127.76 30.9177 129.775 34.5436 132.998L29.3057 139.444C26.7875 137.076 23.2122 135.567 19.9888 135.567C14.2977 135.567 10.0171 139.948 10.0171 145.69C10.0171 151.481 14.3482 155.863 20.0898 155.863C21.8522 155.863 24.0683 155.258 26.1834 154.2V150.671L21.6893 150.713V144.65L34.1409 144.63ZM61.5236 146.192H68.222C71.9484 146.192 74.1145 144.28 74.1145 140.703C74.1145 137.228 71.9484 135.364 68.222 135.364H61.5236V146.192ZM73.5098 163.316L68.3729 153.547H61.5236V163.316H52.3072V128.012H68.1714C77.5389 128.012 82.8773 132.545 82.8773 140.402C82.8773 145.738 80.6611 149.668 76.5816 151.784L83.935 163.316H73.5098ZM128.695 128.012V135.364H110.06V141.961H126.883V149.265L110.06 149.314V155.963H129.199V163.316H100.845V128.012H128.695ZM174.107 128.012V135.617H163.531V163.316H154.315V135.617H143.84V128.012H174.107ZM217.762 128.012V135.364H199.126V141.961H215.947V149.265L199.126 149.314V155.963H218.266V163.316H189.91V128.012H217.762ZM245.194 128.012V155.458H260.153V163.316H235.979V128.012H245.194Z" fill="white"/>
<path d="M167.555 74.9473C171.534 74.0171 174.497 70.4568 174.497 66.1976C174.497 61.8993 171.482 58.3114 167.45 57.4207C171.482 56.5301 174.497 52.9408 174.497 48.6436C174.497 43.6757 170.471 39.6492 165.503 39.6492C164.311 39.6492 163.174 39.8865 162.132 40.3091C162.168 40.2705 162.21 40.2385 162.247 40.1998C165.67 36.5999 165.527 30.9081 161.928 27.4841C158.831 24.5389 154.189 24.2402 150.77 26.5055C152.858 22.9789 152.326 18.359 149.231 15.4151C146.118 12.4552 141.442 12.1672 138.021 14.4698C140.033 11.0912 139.657 6.66332 136.814 3.67406C133.391 0.075484 127.699 -0.0671648 124.099 3.35542C120.992 6.31134 120.467 10.9566 122.583 14.4885C119.159 12.1645 114.464 12.4472 111.343 15.4151C108.248 18.359 107.717 22.9789 109.803 26.5055C106.386 24.2402 101.743 24.5389 98.6461 27.4841C95.0468 30.9081 94.9042 36.5999 98.3279 40.1998C98.3594 40.2332 98.3954 40.2611 98.4274 40.2945C97.4156 39.8998 96.3181 39.6758 95.1671 39.6758C90.2 39.6758 86.1725 43.7024 86.1725 48.6703C86.1725 52.9342 89.1448 56.4981 93.1275 57.4234C89.1407 58.346 86.1664 61.9113 86.1664 66.1777C86.1664 70.4495 89.1475 74.0182 93.1401 74.9353C89.1439 75.8515 86.1606 79.4216 86.1606 83.695C86.1606 88.6621 90.1876 92.6896 95.1552 92.6896C100.122 92.6896 104.149 88.6621 104.149 83.695C104.149 79.4243 101.167 75.8556 97.1749 74.9375C101.171 74.0212 104.155 70.4511 104.155 66.1777C104.155 61.9126 101.183 58.3487 97.1998 57.4247C101.187 56.5021 104.161 52.9368 104.161 48.6703C104.161 46.2183 103.178 43.9984 101.587 42.3758C104.733 43.5971 108.436 42.9984 111.043 40.5185C114.139 37.5746 114.67 32.956 112.583 29.4294C116 31.6934 120.644 31.3947 123.74 28.4494C126.848 25.4935 127.372 20.8496 125.256 17.3177C128.272 19.3643 132.268 19.3803 135.312 17.3284C133.204 20.859 133.729 25.4975 136.833 28.4494C139.93 31.3947 144.574 31.6934 147.991 29.4294C145.904 32.956 146.437 37.5746 149.531 40.5185C152.169 43.0278 155.929 43.6131 159.099 42.3344C157.498 43.9571 156.51 46.185 156.51 48.6436C156.51 52.9408 159.527 56.5301 163.556 57.4207C159.527 58.3114 156.51 61.8993 156.51 66.1976C156.51 70.4729 159.495 74.0436 163.494 74.9577C160.155 75.7384 157.535 78.3733 156.779 81.721C155.874 77.7118 152.297 74.7156 148.013 74.7156C143.697 74.7156 140.094 77.7577 139.222 81.8138C138.489 78.3921 135.809 75.6979 132.397 74.9369C136.418 74.04 139.426 70.4563 139.426 66.1642C139.426 61.1966 135.4 57.1701 130.433 57.1701C125.465 57.1701 121.439 61.1966 121.439 66.1642C121.439 70.4563 124.447 74.04 128.468 74.9369C124.447 75.8337 121.439 79.4175 121.439 83.7097C121.439 88.6766 125.465 92.7041 130.433 92.7041C134.749 92.7041 138.352 89.661 139.222 85.6053C140.094 89.661 143.697 92.7041 148.013 92.7041C152.297 92.7041 155.875 89.7052 156.779 85.6949C157.686 89.7052 161.263 92.701 165.547 92.701C170.514 92.701 174.541 88.6757 174.541 83.7081C174.541 79.4322 171.554 75.8613 167.555 74.9473Z" fill="#F03863"/>
</svg>
