<svg xmlns="http://www.w3.org/2000/svg" width="335.72" height="229.693" viewBox="0 0 335.72 229.693"><path d="M518.57 405.488V296.309c-28.332-19.637-73.281-34-110.3-34-80.832 0-141.649 58.179-141.649 135.23 0 77.063 62.328 134.473 146.18 134.473 39.664 0 81.594-15.114 108.789-39.282l-39.285-48.351c-18.887 17.762-45.703 29.082-69.879 29.082-42.684 0-74.789-32.859-74.789-75.922 0-43.437 32.484-76.301 75.547-76.301 13.218 0 29.839 4.532 45.703 12.473v26.469l-33.707-.321v45.473zM723.945 393.77h50.239c27.949 0 44.195 14.339 44.195 41.171 0 26.059-16.246 40.039-44.195 40.039h-50.239zm89.899-128.43-38.528 73.269h-51.371V265.34H654.82v264.781h118.985c70.258 0 110.297-33.992 110.297-92.922 0-40.027-16.622-69.5-47.219-85.371l55.152-86.488zM1227.74 530.121V474.98h-139.76V425.5h126.17v-54.781l-126.17-.367v-49.864h143.54V265.34h-212.66v264.781zM1568.34 530.121v-57.039h-79.32V265.34h-69.12v207.742h-78.57v57.039zM1895.76 530.121V474.98h-139.77V425.5h126.16v-54.781l-126.16-.367v-49.864h143.55V265.34h-212.67v264.781zM2101.51 530.121V324.27h112.19v-58.93h-181.31v264.781z" style="fill:#fff;fill-opacity:1;fill-rule:nonzero;stroke:none" transform="matrix(.13333 0 0 -.13333 0 229.693)"/><path d="M1519.2 928.117c29.84 6.977 52.07 33.68 52.07 65.625 0 32.238-22.62 59.148-52.86 65.828 30.24 6.68 52.86 33.6 52.86 65.83 0 37.26-30.2 67.46-67.46 67.46-8.94 0-17.47-1.78-25.28-4.95.27.29.58.53.86.82 25.67 27 24.6 69.69-2.39 95.37-23.23 22.09-58.05 24.33-83.69 7.34 15.66 26.45 11.67 61.1-11.54 83.18-23.35 22.2-58.42 24.36-84.08 7.09 15.09 25.34 12.27 58.55-9.05 80.97-25.68 26.99-68.37 28.06-95.37 2.39-23.3-22.17-27.24-57.01-11.37-83.5-25.68 17.43-60.89 15.31-84.3-6.95-23.21-22.08-27.2-56.73-11.55-83.18-25.63 16.99-60.45 14.75-83.68-7.34-26.995-25.68-28.065-68.37-2.386-95.37.236-.25.506-.46.746-.71-7.589 2.96-15.82 4.64-24.453 4.64-37.254 0-67.461-30.2-67.461-67.46 0-31.98 22.293-58.71 52.164-65.65-29.902-6.92-52.21-33.66-52.21-65.659 0-32.039 22.359-58.805 52.304-65.684-29.972-6.871-52.347-33.648-52.347-65.699 0-37.254 30.203-67.461 67.461-67.461 37.252 0 67.452 30.207 67.452 67.461 0 32.031-22.36 58.797-52.304 65.683 29.974 6.872 52.354 33.649 52.354 65.7 0 31.989-22.29 58.719-52.167 65.649 29.907 6.92 52.207 33.66 52.207 65.66 0 18.39-7.37 35.04-19.3 47.21 23.59-9.16 51.37-4.67 70.92 13.93 23.22 22.08 27.2 56.72 11.55 83.17 25.63-16.98 60.46-14.74 83.68 7.35 23.31 22.17 27.24 57 11.37 83.49 22.62-15.35 52.59-15.47 75.42-.08-15.81-26.48-11.87-61.27 11.41-83.41 23.23-22.09 58.06-24.33 83.69-7.35-15.66-26.45-11.66-61.09 11.55-83.17 19.78-18.82 47.98-23.21 71.76-13.62-12.01-12.17-19.42-28.88-19.42-47.32 0-32.23 22.63-59.15 52.85-65.83-30.22-6.68-52.85-33.59-52.85-65.828 0-32.066 22.39-58.847 52.38-65.703-25.04-5.855-44.69-25.617-50.36-50.726-6.79 30.07-33.62 52.542-65.75 52.542-32.37 0-59.39-22.816-65.93-53.238-5.5 25.664-25.6 45.871-51.19 51.578 30.16 6.727 52.72 33.606 52.72 65.797 0 37.258-30.2 67.458-67.45 67.458-37.26 0-67.46-30.2-67.46-67.458 0-32.191 22.56-59.07 52.72-65.797-30.16-6.726-52.72-33.605-52.72-65.797 0-37.253 30.2-67.46 67.46-67.46 32.37 0 59.39 22.824 65.92 53.242 6.54-30.418 33.56-53.242 65.93-53.242 32.13 0 58.97 22.492 65.75 52.57 6.8-30.078 33.63-52.547 65.76-52.547 37.25 0 67.46 30.191 67.46 67.449 0 32.07-22.41 58.852-52.4 65.707" style="fill:#f03863;fill-opacity:1;fill-rule:nonzero;stroke:none" transform="matrix(.13333 0 0 -.13333 0 229.693)"/></svg>
