<svg width="199px" height="42px" viewBox="0 0 199 42" version="1.1" xmlns="http://www.w3.org/2000/svg" xmlns:xlink="http://www.w3.org/1999/xlink">
    <g id="Symbols" stroke="none" stroke-width="1" fill="none" fill-rule="evenodd">
        <g id="Navigation/Desktop-1920" transform="translate(-202.000000, -59.000000)" fill="#FFFFFF">
            <g id="Brand/Logo-Full" transform="translate(201.999975, 59.000000)">
                <path d="M85.5870634,17.9287393 L72.7390723,17.9287393 L72.7390723,5.40850555 L66.4908785,5.40850555 L66.4908785,36.1357679 L72.7390723,36.1357679 L72.7390723,23.334708 L85.5870634,23.334708 L85.5870634,36.1357679 L91.8588497,36.1357679 L91.8588497,5.40850555 L85.5870634,5.40850555 L85.5870634,17.9287393 Z M138.958003,29.6650948 C137.920443,30.7805357 136.574659,31.3381292 134.921158,31.3381292 C133.220472,31.3381292 131.843738,30.7883998 130.790703,29.6884336 C129.737668,28.5884674 129.211024,27.1259892 129.211024,25.3004917 C129.211024,23.4752479 129.725999,22.0125161 130.755695,20.9125499 C131.785391,19.8125836 133.150456,19.2626005 134.851141,19.2626005 C136.55132,19.2626005 137.920443,19.8207015 138.958003,20.9358886 C139.995564,22.0515832 140.514344,23.5064509 140.514344,25.3004917 C140.514344,27.0947863 139.995564,28.549654 138.958003,29.6650948 L138.958003,29.6650948 Z M141.509032,15.3662949 C139.894091,14.4223432 138.064788,13.9504942 136.021124,13.9504942 C134.538859,13.9504942 133.201192,14.180584 132.007617,14.6407636 C130.814042,15.1009432 129.850557,15.7602634 129.117415,16.6182168 L129.117415,3.8156347 L123.173386,5.40850555 L123.173386,36.1357679 L128.111058,36.1357679 L128.485746,33.2572355 C129.218888,34.3493375 130.260254,35.2075446 131.609843,35.8316029 C132.959179,36.4554076 134.44525,36.7676904 136.068055,36.7676904 C138.111719,36.7676904 139.933158,36.2955878 141.532371,35.3516361 C143.13133,34.4079381 144.375641,33.0624075 145.265051,31.3147905 C146.154208,29.5676808 146.598913,27.5785583 146.598913,25.3474229 C146.598913,23.1165412 146.154208,21.131224 145.265051,19.3914711 C144.375641,17.6519719 143.12372,16.3102465 141.509032,15.3662949 L141.509032,15.3662949 Z M112.308176,26.1764565 C112.308176,29.0846698 110.545845,31.572278 107.333467,31.572278 C104.121089,31.572278 102.499298,29.4207988 102.499298,26.4572828 L102.499298,14.652433 L96.5083379,14.652433 L96.5083379,27.416709 C96.5083379,32.9370885 100.234676,36.7676904 105.367683,36.7676904 C110.50069,36.7676904 112.865516,33.2572355 112.865516,33.2572355 L113.314533,36.1357679 L118.252458,36.1357679 L118.252458,14.652433 L112.308176,14.652433 L112.308176,26.1764565 Z M191.312438,29.7351111 C190.243675,30.8977369 188.859077,31.4786692 187.158645,31.4786692 C185.473688,31.4786692 184.096447,30.8977369 183.028191,29.7351111 C181.959174,28.5729927 181.424919,27.1105146 181.424919,25.3474229 C181.424919,23.568603 181.955115,22.1101838 183.016522,20.9711505 C184.077167,19.8323708 185.45796,19.2626005 187.158645,19.2626005 C188.89028,19.2626005 190.282742,19.8283119 191.335777,20.9592274 C192.389066,22.0906502 192.915457,23.5533821 192.915457,25.3474229 C192.915457,27.1105146 192.380948,28.5729927 191.312438,29.7351111 L191.312438,29.7351111 Z M197.513955,19.4614874 C196.523072,17.7379702 195.123,16.388127 193.313484,15.4129724 C191.503461,14.4380715 189.451933,13.9504942 187.158645,13.9504942 C184.865104,13.9504942 182.817381,14.4380715 181.015476,15.4129724 C179.213571,16.388127 177.81705,17.7379702 176.826421,19.4614874 C175.835538,21.1857656 175.34035,23.1474905 175.34035,25.3474229 C175.34035,27.56283 175.843656,29.5326727 176.84976,31.2564436 C177.856117,32.9804681 179.252384,34.3300577 181.038815,35.3049586 C182.825245,36.2798595 184.865104,36.7676904 187.158645,36.7676904 C189.467408,36.7676904 191.523248,36.2798595 193.325153,35.3049586 C195.127058,34.3300577 196.523072,32.9764092 197.513955,31.2445205 C198.504838,29.5128855 199.000025,27.5471017 199.000025,25.3474229 C199.000025,23.1474905 198.504838,21.1857656 197.513955,19.4614874 L197.513955,19.4614874 Z M165.111882,29.7351111 C164.043119,30.8977369 162.658267,31.4786692 160.958089,31.4786692 C159.273132,31.4786692 157.895891,30.8977369 156.827635,29.7351111 C155.758618,28.5729927 155.224363,27.1105146 155.224363,25.3474229 C155.224363,23.568603 155.754559,22.1101838 156.815712,20.9711505 C157.876611,19.8323708 159.257403,19.2626005 160.958089,19.2626005 C162.689724,19.2626005 164.082186,19.8283119 165.135221,20.9592274 C166.18851,22.0906502 166.7149,23.5533821 166.7149,25.3474229 C166.7149,27.1105146 166.180392,28.5729927 165.111882,29.7351111 L165.111882,29.7351111 Z M167.112928,15.4129724 C165.302905,14.4380715 163.251377,13.9504942 160.958089,13.9504942 C158.664548,13.9504942 156.616825,14.4380715 154.81492,15.4129724 C153.013015,16.388127 151.616494,17.7379702 150.625865,19.4614874 C149.634982,21.1857656 149.139794,23.1474905 149.139794,25.3474229 C149.139794,27.56283 149.6431,29.5326727 150.649203,31.2564436 C151.655561,32.9804681 153.051574,34.3300577 154.838258,35.3049586 C156.624435,36.2798595 158.664548,36.7676904 160.958089,36.7676904 C163.266851,36.7676904 165.322438,36.2798595 167.124597,35.3049586 C168.926502,34.3300577 170.322516,32.9764092 171.313398,31.2445205 C172.304028,29.5128855 172.799469,27.5471017 172.799469,25.3474229 C172.799469,23.1474905 172.304028,21.1857656 171.313398,19.4614874 C170.322516,17.7379702 168.922443,16.388127 167.112928,15.4129724 L167.112928,15.4129724 Z M52.6063416,10.0420118 L48.7026792,13.9459279 L28.5181974,8.5374224 L32.4660005,1.69967107 L52.6063416,10.0420118 Z M48.2295618,34.5913504 L28.1688769,39.9663699 L28.1688769,9.8408418 L48.2295618,15.216115 L48.2295618,34.5913504 Z M26.819541,39.9663699 L16.4604264,37.1908324 L16.4604264,29.2320592 L15.1110905,29.1115601 L15.1110905,36.8290815 L6.75910984,34.5913504 L6.75910984,15.216115 L15.1110905,12.9781302 L15.1110905,20.6956515 L16.4604264,20.5751525 L16.4604264,12.616633 L26.819541,9.8408418 L26.819541,39.9663699 Z M2.38233,10.0420118 L22.5224174,1.69967107 L26.4702206,8.5374224 L6.28599244,13.9459279 L2.38233,10.0420118 Z M27.4943358,7.61224324 L23.0992908,0 L2.84217094e-14,9.5678797 L5.40977396,14.9776537 L5.40977396,35.6266277 L27.4943358,41.5442735 L49.5788977,35.6266277 L49.5788977,14.9776537 L54.9886716,9.5678797 L31.8891271,0 L27.4943358,7.61224324 Z" id="Huboo-Logo"/>
            </g>
        </g>
    </g>
<script xmlns=""/></svg>