<svg xmlns="http://www.w3.org/2000/svg" xml:space="preserve" id="Layer_1" x="0" y="0" style="enable-background:new 0 0 2340.99 983.49" version="1.1" viewBox="0 0 2340.99 983.49"><style>.st0{fill:#0a3232}</style><path d="M1376.07 381.99c68.04 0 123.39-55.36 123.39-123.39V123.39C1499.47 55.35 1444.11 0 1376.07 0H841.52v536.49l154.51-154.51h380.06-.02zm-479.71 22.1V54.84h479.72c37.8 0 68.55 30.76 68.55 68.55V258.6c0 37.8-30.76 68.55-68.55 68.55H973.31l-76.95 76.94zM313.96 714.93c-60.4 0-96.91 46.06-96.91 100.67s32.42 97.59 97.94 97.59c21.5 0 39.24-4.43 52.56-13.31 13.65-8.88 24.23-19.12 31.74-31.06l-27.64-15.7c-11.26 19.45-28.33 32.42-56.99 32.42-40.95 0-62.79-24.57-65.52-62.79h154.25v-10.24c0-53.92-30.03-97.59-89.41-97.59h-.02zm-64.15 86.68c4.1-35.49 26.96-59.37 64.15-59.37s55.29 24.91 56.99 59.37H249.81zm1088.75 83.27c-42.32 0-62.1-28.66-62.1-70.64 0-41.98 21.5-71.66 62.45-71.66 29.37 0 45.82 15.39 53.23 38.53l33.51-6.49c-11.52-34.79-37.85-59.68-86.04-59.68-60.4 0-96.57 44.36-96.57 99.3s32.76 98.96 95.54 98.96c47.38 0 74.75-25.33 87.58-59.58l-33.4-6.47c-8.5 23.96-24.72 37.73-54.18 37.73h-.02zm642.24-147.42c-11.94-15.02-29.34-22.52-52.89-22.52-33.11 0-58.35 18.43-70.98 52.89v-49.16h-32.76v191.1h33.11v-91.79c0-48.8 23.55-75.41 57.67-75.41 37.2 0 50.84 24.91 50.84 60.4v106.81h32.76V795.47c0-23.55-5.79-43-17.75-58.01zM92.14 660.67H0v249.11h33.11v-78.49h59.37c62.45 0 102.37-32.42 102.37-88.73-.35-50.51-36.17-81.9-102.72-81.9l.01.01zm-2.38 145.37H33.12V691.05h55.97c48.8 0 73.03 17.75 73.03 56.99s-24.91 58.01-72.34 58.01h-.02zm1621.61-38.55v-48.81h-32.76v191.1h33.11V815.6c0-48.11 21.16-69.69 47.43-70.3 4.38-.1 34.86 0 34.86 0v-29.34h-26.33c-28.67 0-47.78 16.04-56.31 51.53zm-561.44 0v-48.81h-32.76v191.1h33.11V815.6c0-48.11 21.16-69.69 47.43-70.3 4.38-.1 34.86 0 34.86 0v-29.34h-26.33c-28.66 0-47.78 16.04-56.31 51.53zm-161.91-52.56c-60.4 0-96.91 46.06-96.91 100.67s32.42 97.59 97.94 97.59c21.5 0 39.24-4.43 52.56-13.31 13.65-8.88 24.23-19.12 31.74-31.06l-27.64-15.7c-11.26 19.45-28.33 32.42-56.99 32.42-40.95 0-62.79-24.57-65.52-62.79h154.25v-10.24c0-53.92-30.03-97.59-89.41-97.59h-.02zm-64.15 86.68c4.1-35.49 26.96-59.37 64.15-59.37 37.19 0 55.29 24.91 56.99 59.37H923.87zm-146.22-85.99c-31.39 0-59.04 16.39-73.03 46.75v-43.68h-33.11V983.5h33.11V867.13c12.62 28.33 36.85 45.38 70.64 45.38 46.75 0 85.32-35.49 85.32-99.64s-38.9-97.26-82.92-97.26h-.01zm-11.26 169.25c-43.33 0-64.5-30.71-64.5-70.64s21.83-71.33 63.47-71.33c36.85 0 61.77 25.25 61.77 70.64 0 45.4-22.52 71.33-60.74 71.33zm780.05-169.94c-60.4 0-96.57 44.36-96.57 99.3s34.12 98.96 96.23 98.96c62.1 0 96.23-44.36 96.23-98.96 0-54.59-34.81-99.3-95.89-99.3zm46.75 150.15c-10.24 13.31-25.93 20.13-47.1 20.13-42.32 0-62.45-29.01-62.45-70.98s21.83-71.66 62.79-71.66c40.95 0 62.45 29.34 62.45 71.66 0 20.47-5.11 37.54-15.7 50.84h.01zM549.25 715.62c-31.39 0-59.04 16.39-73.03 46.75v-43.68h-33.11V983.5h33.11V867.13c12.62 28.33 36.85 45.38 70.64 45.38 46.75 0 85.32-35.49 85.32-99.64s-38.9-97.26-82.92-97.26h-.01zm-11.26 169.25c-43.33 0-64.5-30.71-64.5-70.64s21.83-71.33 63.47-71.33c36.85 0 61.77 25.25 61.77 70.64 0 45.4-22.52 71.33-60.74 71.33zM2036.23 909.79l99.31-249.13h37.54l99.31 249.13h-35.15l-21.84-56.99h-122.52l-21.84 56.99h-34.81zm106.14-185.65-39.93 104.09h103.41l-40.27-104.43-11.6-33.44-11.61 33.78zM2307.88 909.79V660.66h33.1v249.13h-33.1z" class="st0"/></svg>
