<svg width="1081" height="219" viewBox="0 0 1081 219" fill="none" xmlns="http://www.w3.org/2000/svg">
<path d="M483.89 3.32031H311.99C302.86 3.32031 295.45 10.7203 295.45 19.8603V198.85C295.45 207.98 302.85 215.39 311.99 215.39H483.89C493.02 215.39 500.43 207.99 500.43 198.85C500.43 189.72 493.03 182.31 483.89 182.31H362.5C346.03 182.31 332.67 168.95 332.67 152.48C332.67 136.01 346.03 122.65 362.5 122.65H467.06C476.19 122.65 483.6 115.25 483.6 106.11C483.6 96.9703 476.2 89.5703 467.06 89.5703H359.26C344.58 89.5703 332.68 77.6703 332.68 62.9903C332.68 48.3103 344.58 36.4103 359.26 36.4103H483.9C493.03 36.4103 500.44 29.0103 500.44 19.8703C500.44 10.7303 493.04 3.33031 483.9 3.33031L483.89 3.32031ZM197.17 182.3H103.4C85.91 182.3 77.34 161 89.95 148.88L204.38 39.0003C208.4 34.9403 214.44 28.7403 213 18.9803C211.46 8.5603 204.78 3.32031 194.55 3.32031H20C10.86 3.32031 3.46003 10.7303 3.46003 19.8603C3.46003 28.9903 10.87 36.4003 20 36.4003H109.74C127.22 36.4003 135.8 57.6903 123.2 69.8103L8.90001 179.71C4.88001 183.77 -1.15998 189.97 0.280019 199.73C1.82002 210.15 8.50002 215.39 18.73 215.39H196.68C205.82 215.39 213.21 207.98 213.21 198.85V198.35C213.21 189.49 206.02 182.3 197.16 182.3H197.17ZM773.56 2.3103C763.12 2.3103 754.66 10.7703 754.66 21.2103V112C754.66 154.53 737.83 185.25 684.96 185.25C632.09 185.25 615.26 154.53 615.26 112V21.2103C615.26 10.7703 606.8 2.3103 596.36 2.3103C585.92 2.3103 577.46 10.7703 577.46 21.2103V113.18C577.46 175.5 609.95 218.62 684.97 218.62C759.99 218.62 792.48 175.5 792.48 113.18V21.2103C792.48 10.7703 784.02 2.3103 773.58 2.3103H773.56ZM976.71 90.1503C921.18 83.6503 907.6 79.5203 907.6 62.6803C907.6 47.3203 925.32 32.8503 967.26 32.8503C997.26 32.8503 1022.38 41.2303 1038.98 56.5803C1045.48 62.5903 1055.34 63.0403 1062.13 57.3603L1062.38 57.1503C1070.67 50.2103 1070.98 37.4203 1062.83 30.3203C1041.23 11.4703 1006.41 0.0703125 968.73 0.0703125C909.66 0.0703125 871.85 28.1303 871.85 66.5303C871.85 107.88 910.25 116.74 964.29 122.94C1026.31 130.03 1044.04 131.8 1044.04 154.25C1044.04 173.15 1016.57 185.85 978.47 185.85C951.1 185.85 918.94 178.02 895.24 153.4C888.52 146.42 877.49 146.02 870.38 152.59L869.09 153.79C861.69 160.62 861.49 172.21 868.57 179.37C892.34 203.38 933.61 218.64 977.58 218.64C1035.17 218.64 1080.95 195.01 1080.95 149.82C1080.95 104.63 1041.08 97.5403 976.69 90.1603L976.71 90.1503Z" fill="#3C2644"/>
</svg>
