<svg xmlns="http://www.w3.org/2000/svg" viewBox="0 0 1505.04 642.7"><path d="M695.89 215.32h-171.9c-9.13 0-16.54 7.4-16.54 16.54v178.99c0 9.13 7.4 16.54 16.54 16.54h171.9c9.13 0 16.54-7.4 16.54-16.54 0-9.13-7.4-16.54-16.54-16.54H574.5c-16.47 0-29.83-13.36-29.83-29.83s13.36-29.83 29.83-29.83h104.56c9.13 0 16.54-7.4 16.54-16.54s-7.4-16.54-16.54-16.54h-107.8c-14.68 0-26.58-11.9-26.58-26.58s11.9-26.58 26.58-26.58H695.9c9.13 0 16.54-7.4 16.54-16.54s-7.4-16.54-16.54-16.54ZM409.17 394.3H315.4c-17.49 0-26.06-21.3-13.45-33.42L416.38 251c4.02-4.06 10.06-10.26 8.62-20.02-1.54-10.42-8.22-15.66-18.45-15.66H232c-9.14 0-16.54 7.41-16.54 16.54s7.41 16.54 16.54 16.54h89.74c17.48 0 26.06 21.29 13.46 33.41l-114.3 109.9c-4.02 4.06-10.06 10.26-8.62 20.02 1.54 10.42 8.22 15.66 18.45 15.66h177.95c9.14 0 16.53-7.41 16.53-16.54v-.5c0-8.86-7.19-16.05-16.05-16.05Zm576.39-179.99c-10.44 0-18.9 8.46-18.9 18.9V324c0 42.53-16.83 73.25-69.7 73.25s-69.7-30.72-69.7-73.25v-90.79c0-10.44-8.46-18.9-18.9-18.9s-18.9 8.46-18.9 18.9v91.97c0 62.32 32.49 105.44 107.51 105.44s107.51-43.12 107.51-105.44v-91.97c0-10.44-8.46-18.9-18.9-18.9Zm203.15 87.84c-55.53-6.5-69.11-10.63-69.11-27.47 0-15.36 17.72-29.83 59.66-29.83 30 0 55.12 8.38 71.72 23.73 6.5 6.01 16.36 6.46 23.15.78l.25-.21c8.29-6.94 8.6-19.73.45-26.83-21.6-18.85-56.42-30.25-94.1-30.25-59.07 0-96.88 28.06-96.88 66.46 0 41.35 38.4 50.21 92.44 56.41 62.02 7.09 79.75 8.86 79.75 31.31 0 18.9-27.47 31.6-65.57 31.6-27.37 0-59.53-7.83-83.23-32.45-6.72-6.98-17.75-7.38-24.86-.81l-1.29 1.2c-7.4 6.83-7.6 18.42-.52 25.58 23.77 24.01 65.04 39.27 109.01 39.27 57.59 0 103.37-23.63 103.37-68.82s-39.87-52.28-104.26-59.66Z" style="fill:#3c2644"/></svg>
