<svg xmlns="http://www.w3.org/2000/svg" width="144" height="36" fill="none" viewBox="0 0 144 36"><path fill="#beff64" d="M97.637 14.87h-.278v-2.99h-4.268v18.294h4.511v-8.66c0-3.27 1.736-5.392 4.616-5.392h1.874v-4.313h-1.666c-2.533 0-4.199 1.635-4.789 3.06zm7.912 15.304h4.512V11.879h-4.512zm-47.612-3.965c-4.58 0-7.913-3.443-7.913-8.208s3.332-8.209 7.913-8.209c3.332 0 5.969 1.844 6.871 4.66h4.998c-1.25-5.217-5.623-9.077-11.869-9.077-7.427 0-12.702 5.46-12.702 12.625s5.24 12.625 12.667 12.625c6.248 0 10.863-3.756 12.043-9.008h-5.067c-.971 2.782-3.644 4.59-6.941 4.59zm27.728-11.964h-.243c-.625-.94-2.395-2.817-5.553-2.817-4.997 0-8.468 3.964-8.468 9.704s3.506 9.495 8.607 9.495c3.332 0 4.963-2.017 5.484-2.782h.242v2.33h4.443V11.88h-4.512zm-4.789 12.312c-2.915 0-4.894-2.191-4.894-5.495s1.979-5.53 4.86-5.53c2.88 0 4.927 2.087 4.927 5.53 0 3.06-1.874 5.495-4.893 5.495M107.804 4.22a2.707 2.707 0 0 0-2.704 2.71 2.707 2.707 0 0 0 2.704 2.71 2.707 2.707 0 0 0 2.704-2.71 2.707 2.707 0 0 0-2.704-2.71M144 15.496v-3.618h-5.032V6.835h-4.234v3.687c0 .87-.521 1.391-1.319 1.391h-2.048v3.583h3.089v8.59c0 3.931 2.291 6.088 6.074 6.088h3.366v-3.756h-2.429c-1.736 0-2.499-.974-2.499-2.504v-8.418zm-24.882-4.169c0-1.53.833-2.52 2.776-2.52h1.646V5.053h-2.097c-3.956 0-6.698 2.4-6.698 6.33v.497h-3.227v3.617h3.124v14.678h4.511V15.497h4.789v-3.618h-4.823v-.551zm8.537-7.107a2.707 2.707 0 0 0-2.704 2.71 2.707 2.707 0 0 0 2.704 2.71 2.707 2.707 0 0 0 2.704-2.71 2.707 2.707 0 0 0-2.704-2.71m-2.256 25.954h4.512V11.879h-4.512zm-104.426-3.23a12.6 12.6 0 0 1-3.18-5.35 7.7 7.7 0 0 1-1.358 1.841 7.657 7.657 0 0 1-10.846 0 7.7 7.7 0 0 1 0-10.87 7.657 7.657 0 0 1 10.846 0 7.7 7.7 0 0 1 1.359 1.842 12.6 12.6 0 0 1 3.179-5.35 12.58 12.58 0 0 1 9.794-3.675q-.053-.055-.107-.11c-7.014-7.03-18.385-7.03-25.4 0-7.013 7.03-7.013 18.426 0 25.456 7.015 7.03 18.386 7.03 25.4 0l.106-.11a12.57 12.57 0 0 1-9.794-3.674m3.501-14.379a7.7 7.7 0 0 0 0 10.87 7.657 7.657 0 0 0 10.846 0 7.7 7.7 0 0 0 0-10.87 7.657 7.657 0 0 0-10.846 0"/></svg>
