<svg xmlns="http://www.w3.org/2000/svg" width="1389" height="1470" viewbox="0 0 1389 1470" fill="none"><path fill="#53585f" d="M1388.96.4H0v40h1388.96V.4ZM1388.96 1469.35h-40c0-182.12-35.66-358.78-106-525.07-33.81-79.93-75.65-157.02-124.37-229.13-48.26-71.43-103.68-138.61-164.73-199.66-61.05-61.05-128.22-116.47-199.66-164.73-72.11-48.72-149.2-90.56-229.13-124.37-166.29-70.34-342.95-106-525.07-106v-40c187.5 0 369.4 36.73 540.65 109.16 82.31 34.81 161.69 77.9 235.94 128.06 73.54 49.68 142.7 106.74 205.55 169.59 62.85 62.85 119.91 132 169.59 205.55 50.17 74.25 93.25 153.64 128.06 235.94 72.43 171.25 109.16 353.15 109.16 540.65l.01.01Z"/></svg>
