<svg width="447" height="155" viewBox="0 0 447 155" fill="none" xmlns="http://www.w3.org/2000/svg">
<rect width="447" height="154.602" rx="8" fill="#111111"/>
<path fill-rule="evenodd" clip-rule="evenodd" d="M385.577 66.8552H376.802L378.039 67.8062C379.34 68.7544 380.382 69.9916 381.077 71.4124C381.773 72.8333 382.1 74.3951 382.032 75.9646C382.032 80.3868 379.773 87.8146 364.619 87.8146C362.43 87.858 360.243 87.6534 358.104 87.2044L356.723 86.8074L356.292 86.6861C356.866 89.8122 359.61 92.156 363.795 92.1561H371.464C380.885 92.1561 385.661 95.5303 385.662 102.181C385.662 107.547 382.385 112.159 376.736 114.98L376.139 114.249C376.877 113.608 377.465 112.824 377.863 111.947C378.261 111.071 378.46 110.121 378.447 109.165C378.446 105.405 375.917 103.7 369.993 103.47L358.899 103.153C357.842 103.106 356.79 102.978 355.755 102.768C353.365 102.338 351.203 101.123 349.637 99.3314C348.071 97.5396 347.196 95.2805 347.164 92.9386L354.792 86.6057C354.837 86.5694 354.865 86.5174 354.87 86.4615C354.875 86.4055 354.856 86.3491 354.819 86.3057C354.794 86.2772 354.762 86.2549 354.726 86.2419C349.729 84.3133 347.195 80.7151 347.195 75.5331C347.195 67.4724 353.453 62.8648 364.363 62.8648C368.726 62.8648 372.731 63.6311 375.415 64.9953C376.419 65.5423 376.934 65.4326 377.807 64.5L385.577 58.0459V66.8552ZM364.619 65.1051C360.931 65.1053 358.792 69.2513 358.792 75.2395C358.792 83.7319 361.738 85.638 364.619 85.6381C368.026 85.6381 370.454 83.7607 370.454 75.3199C370.454 66.763 367.56 65.0936 364.619 65.0936V65.1051Z" fill="white"/>
<path d="M86.2066 81.4345C86.2066 87.4862 87.2468 91.5165 91.545 91.5165C93.7628 91.5165 95.4251 90.3016 96.6741 88.5741V63.4009H108.031V91.3787C107.987 91.6861 108.023 92.0002 108.135 92.2914C108.246 92.5822 108.43 92.8424 108.671 93.0484L112.067 96.1044V96.5205H96.6856V89.8532C94.9522 94.5285 91.2755 97.0566 85.6628 97.0567C78.7344 97.0567 74.8493 92.1839 74.8493 82.9714V63.3946H86.2066V81.4345Z" fill="white"/>
<path d="M128.243 49.6221V63.3946H149.463V81.4345C149.463 87.4862 150.504 91.5165 154.796 91.5165C157.013 91.5163 158.68 90.3015 159.924 88.5741V63.4009H171.282V91.3787C171.232 91.6828 171.26 91.9951 171.364 92.2863C171.468 92.5773 171.645 92.8391 171.88 93.0484L175.293 96.1069V96.5218H159.906V89.8532C158.172 94.5286 154.502 97.0565 148.889 97.0567C141.962 97.0567 138.075 92.1855 138.075 82.9727V66.0676H128.243V96.5205H116.938V66.0663H112.102V63.3946H116.944V58.9152L127.913 49.6221H128.243Z" fill="white"/>
<path d="M401.836 62.912C405.973 62.9332 410.085 63.5394 414.038 64.7132L410.158 74.3931H410.02L404.641 65.1115C404.246 64.4433 404.019 64.1094 403.05 64.1094H402.076C399.028 64.1094 396.464 65.6462 396.464 68.7841C396.464 71.7201 398.752 73.1316 402.841 74.8591L407.277 76.7305C411.587 78.5328 414.97 80.8017 415 85.9432C415 93.1521 408.676 97.0208 399.458 97.0209C395.12 96.9859 390.814 96.2886 386.702 94.9542L390.515 84.5901H390.653L396.201 94.9542C396.32 95.2253 396.524 95.4543 396.784 95.6091C397.044 95.7636 397.347 95.8368 397.652 95.8184H399.249C403.265 95.8183 405.764 93.8261 405.764 90.9472C405.764 88.2122 403.612 87.0773 399.111 85.0739L394.394 82.937C390.587 81.1984 387.676 78.198 387.676 73.4536C387.676 67.1143 393.056 62.9122 401.836 62.912Z" fill="white"/>
<path fill-rule="evenodd" clip-rule="evenodd" d="M222.314 62.8827C229.38 62.8828 236.893 65.9865 237.455 75.7743C237.505 76.6608 237.493 77.5497 237.419 78.4346H216.63V78.5674C216.63 87.2447 221.202 90.7862 226.539 90.7863C228.248 90.7418 229.937 90.4236 231.537 89.8468H231.609C231.858 89.7568 232.106 89.6616 232.35 89.5596L232.625 89.4434C232.876 89.3343 233.122 89.225 233.355 89.1039L233.451 89.0579C233.714 88.9197 233.965 88.7817 234.192 88.6379C234.679 88.3127 235.137 87.9481 235.561 87.5491L236.278 88.0558C235.728 89.3671 234.995 90.6008 234.102 91.7233C233.78 92.139 233.433 92.5359 233.061 92.9105L232.894 93.0777L232.685 93.2845C232.488 93.4743 232.362 93.5781 232.362 93.5781C229.72 95.8694 226.193 96.9813 221.895 96.9813C213.162 96.9813 204.919 91.9085 204.919 80.1567C204.919 67.8231 213.096 62.8827 222.314 62.8827ZM222.176 64.1783C218.889 64.1784 216.975 67.2413 216.664 75.8037H226.887V75.2561C226.887 66.5156 225.016 64.1783 222.176 64.1783Z" fill="white"/>
<path d="M200.842 62.8993C202.249 62.9162 203.63 63.2671 204.864 63.9192L202.372 73.7881C194.634 69.9852 194.173 69.9863 193.593 69.9878H193.56C192.801 69.9879 192.161 70.3515 190.966 72.0788V96.5256H179.608V68.5658C179.654 68.2592 179.622 67.9456 179.512 67.6543C179.403 67.3633 179.22 67.1029 178.981 66.8961L175.585 63.8209V63.406H190.973V69.7747C193.256 66.0671 196.149 62.9109 200.842 62.8993Z" fill="white"/>
<path d="M332.43 62.8661C339.364 62.8663 343.243 67.7486 343.202 76.9437V96.5218H331.844V78.4972C331.844 72.4462 330.804 68.4153 326.506 68.4152C324.288 68.4152 322.626 69.6243 321.377 71.3512V96.5192H310.019V68.5594C310.069 68.2562 310.041 67.9457 309.936 67.6556C309.832 67.3654 309.655 67.1046 309.421 66.8961L306.026 63.8503V63.4405H321.412V70.0695C323.146 65.3939 326.817 62.8661 332.43 62.8661Z" fill="white"/>
<path d="M74.8302 49.6221V52.2249H49.814V71.7214H70.8142V74.3229H49.7961V96.5205H37.2427V55.5758C37.2986 55.2819 37.2724 54.9787 37.1674 54.6976C37.0625 54.4166 36.8825 54.1672 36.6453 53.975L32 49.9438V49.6221H74.8302Z" fill="white"/>
<path d="M254.312 49.6221V75.0608L275.891 49.6221H279.383L259.077 73.5698H273.154L287.847 96.5205H273.322L258.975 73.6898L254.342 79.1546V96.5205H236.558V96.1286L241.191 92.1854C241.434 91.9975 241.62 91.7498 241.73 91.4693C241.84 91.1888 241.872 90.8853 241.82 90.5898V49.6221H254.312Z" fill="white"/>
<path d="M301.686 96.5205H290.329V68.5658C290.378 68.2616 290.349 67.9505 290.245 67.6594C290.141 67.3683 289.964 67.1064 289.73 66.8961L286.335 63.8222V63.4073H301.686V96.5205Z" fill="white"/>
<path d="M295.827 49.6502C298.948 49.6502 301.441 51.6254 301.441 54.8329C301.441 57.8328 298.948 59.7743 295.827 59.7743C292.844 59.774 290.281 57.8331 290.28 54.8622C290.28 51.6554 292.839 49.6504 295.827 49.6502Z" fill="white"/>
</svg>
