<svg xmlns="http://www.w3.org/2000/svg" fill="none" viewBox="0 0 734 130">
  <path fill="currentColor" fill-rule="evenodd" d="M34.235 5.177h47.93V0H.106v.641l8.899 8.017a3.367 3.367 0 0 1 1.145 3.184v81.44h24.051v-44.15h40.268v-5.176H34.235V5.176Zm400.926 42.455L474.066 0h-6.689l-41.344 50.598V0h-23.936v81.486c.1.588.042 1.192-.169 1.75a3.352 3.352 0 0 1-1.034 1.423l-8.876 7.845v.778h34.072v-34.54l8.876-10.87 27.487 45.41h27.83l-28.151-45.65h-26.971Zm70.411-27.44c5.979 0 10.754-3.86 10.754-9.827 0-6.38-4.775-10.308-10.754-10.308-5.726 0-10.628 3.986-10.628 10.365 0 5.91 4.913 9.77 10.628 9.77Zm213.525 33.727-8.498-3.722c-7.834-3.436-12.22-6.242-12.22-12.082 0-6.242 4.913-9.3 10.754-9.3H711c1.855 0 2.29.664 3.046 1.993l10.308 18.462h.263l7.433-19.252a80.8 80.8 0 0 0-23.375-3.585c-16.824 0-27.132 8.36-27.132 20.97 0 9.437 5.578 15.404 12.873 18.862l9.036 4.25c8.624 3.985 12.747 6.241 12.747 11.681 0 5.727-4.787 9.69-12.483 9.69h-3.058a2.83 2.83 0 0 1-2.783-1.719l-10.628-20.615h-.264l-7.306 20.615a78.61 78.61 0 0 0 24.44 4.112c17.66 0 29.777-7.696 29.777-22.035-.058-10.227-6.54-14.74-14.797-18.325ZM145.774 27.406v55.65A3.755 3.755 0 0 0 147 86.376l6.505 6.08v.826h-29.468V80.02c-3.321 9.3-10.365 14.328-21.119 14.328-13.274 0-20.718-9.69-20.718-28.014v-38.94h21.76v35.882c0 12.037 1.993 20.054 10.228 20.054 4.249 0 7.433-2.416 9.826-5.852V27.406h21.76ZM635.79 84.601h14.694c18.049 0 27.2 6.712 27.2 19.94 0 10.674-6.276 19.847-17.099 25.459l-1.145-1.454a13.384 13.384 0 0 0 3.303-4.579 13.384 13.384 0 0 0 1.118-5.534c0-7.479-4.845-10.869-16.195-11.327l-21.256-.63a37.7 37.7 0 0 1-6.024-.767 20.163 20.163 0 0 1-16.458-19.55l14.614-12.598a.425.425 0 0 0 .053-.595.427.427 0 0 0-.179-.127c-9.574-3.836-14.43-10.994-14.43-21.302 0-16.033 11.991-25.196 32.892-25.196 8.36 0 16.034 1.524 21.176 4.238 1.924 1.088 2.909.87 4.581-.985l14.889-12.839v17.523h-16.813l2.371 1.89a19.34 19.34 0 0 1 7.65 16.228c0 8.796-4.329 23.57-33.362 23.57a53.465 53.465 0 0 1-12.483-1.214l-2.646-.79-.824-.24c1.099 6.218 6.356 10.88 14.373 10.88Zm12.758-33.487c0-17.02-5.543-20.34-11.178-20.34v.023c-7.066 0-11.166 8.245-11.166 20.156 0 16.893 5.646 20.684 11.166 20.684 6.528 0 11.178-3.734 11.178-20.523ZM266.955 83.055V27.406h-21.76v50.072c-2.382 3.436-5.577 5.852-9.826 5.852-8.223 0-10.216-8.017-10.216-20.054V27.395h-40.657V0h-.63L162.85 18.485v8.91h-9.277v5.314h9.266v60.573h21.657V32.71h18.839v33.625c0 18.325 7.445 28.014 20.718 28.014 10.754 0 17.786-5.028 21.108-14.328v13.263h29.479v-.825l-6.539-6.082a3.722 3.722 0 0 1-1.146-3.32ZM554.591 40.67c3.321-9.3 10.353-14.328 21.107-14.328 13.285 0 20.718 9.712 20.638 28.002v38.94h-21.76V57.434c0-12.036-1.993-20.053-10.228-20.053-4.249 0-7.432 2.405-9.826 5.84v50.06h-21.76V37.668a3.713 3.713 0 0 0-1.146-3.31l-6.505-6.058v-.814h29.48V40.67Zm-249.911-.585V27.418h-29.479v.824l6.505 6.116a3.737 3.737 0 0 1 1.202 3.321v55.615h21.761V44.666c2.29-3.436 3.516-4.158 4.97-4.158h.064c1.11-.003 1.993-.005 16.818 7.559l4.775-19.63a16.446 16.446 0 0 0-7.707-2.027c-8.991.023-14.534 6.299-18.909 13.674Zm189.211-5.726-6.506-6.115v-.825h29.411v65.864h-21.76V37.68a3.755 3.755 0 0 0-1.145-3.322ZM386.064 78.44c.504-.275.985-.55 1.42-.836.933-.647 1.81-1.371 2.622-2.165l1.375 1.008a31.232 31.232 0 0 1-4.169 7.295 25.132 25.132 0 0 1-1.993 2.36l-.32.332-.401.412c-.378.378-.619.584-.619.584-5.062 4.558-11.819 6.769-20.054 6.769-16.732 0-32.525-10.09-32.525-33.465 0-24.532 15.667-34.358 33.327-34.358 13.537 0 27.933 6.173 29.01 25.642a39.26 39.26 0 0 1-.069 5.291h-39.832v.264c0 17.26 8.761 24.303 18.988 24.303a29.611 29.611 0 0 0 9.575-1.867h.137a30.38 30.38 0 0 0 1.42-.573l.527-.229c.481-.217.951-.435 1.397-.676l.184-.091Zm-12.576-27.452c0-17.386-3.584-22.035-9.024-22.035-6.299 0-9.964 6.092-10.56 23.123h19.584v-1.088Z" clip-rule="evenodd"></path>
</svg>
