<svg width="221" height="82" viewBox="0 0 221 82" fill="none" xmlns="http://www.w3.org/2000/svg" id="logo-mini">
  <g class="logo-fk" fill="currentColor">
    <path d="M106.65 41.8301L140.62 0.25H134.82L98.7202 44.4299V0.25H77.77V71.3899C77.77 72.8899 77.65 73.2399 76.73 74.1699L68.9702 81.02V81.7H98.7202V51.54L106.47 42.05L130.5 81.6899H154.76L130.2 41.8301H106.65Z"/>
    <path d="M30.1201 4.76001H71.98V0.23999H0.330078V0.800049L8.1001 7.77002C9.0301 8.70002 9.14014 9.05005 9.14014 10.55V81.6799H30.1299V43.1299H65.2598V38.6101H30.1299V4.75L30.1201 4.76001Z"/>
  </g>
  <g class="logo-fk" fill="#FFD249">
    <path d="M220.15 0.25L188.39 81.7H181.43L149.67 0.25H157.19L184.88 73.6899L212.63 0.25H220.15Z"/>
  </g>
</svg>
