<svg width="481" height="138" viewBox="0 0 481 138" fill="none" xmlns="http://www.w3.org/2000/svg">
<g class="logo-fk" fill="currentColor">
<path d="M470.74 35.9099L465.18 33.48C460.06 31.22 457.19 29.4001 457.19 25.5801C457.19 21.5001 460.4 19.5 464.22 19.5H465.44C466.66 19.5 466.92 19.93 467.44 20.8L474.21 32.8701H474.38L479.24 20.28C473.6 18.54 468.21 17.9399 463.96 17.9399C452.93 17.9399 446.16 23.4099 446.16 31.6599C446.16 37.8299 449.81 41.73 454.58 43.99L460.48 46.77C466.12 49.37 468.82 50.8499 468.82 54.4099C468.82 57.9699 465.69 60.75 460.66 60.75H458.66C457.7 60.75 457.18 60.3201 456.84 59.6201L449.89 46.1599H449.72L444.94 59.6201C449.89 61.3601 455.97 62.3101 460.92 62.3101C472.47 62.3101 480.37 57.2699 480.37 47.8999C480.37 41.2099 476.11 38.2599 470.73 35.9199L470.74 35.9099Z"/>
<path d="M331.1 13.8501C335.01 13.8501 338.13 11.3299 338.13 7.41992C338.13 3.24992 335 0.649902 331.1 0.649902C327.2 0.649902 324.15 3.24992 324.15 7.41992C324.15 11.3299 327.36 13.8501 331.1 13.8501Z"/>
<path d="M95.7998 54.97V18.5701H81.5596V51.3201C79.9996 53.5801 77.9099 55.1399 75.1299 55.1399C69.7499 55.1399 68.4404 49.93 68.4404 42.03V18.5701H54.2002V44.03C54.2002 56.01 59.06 62.3501 67.75 62.3501C74.78 62.3501 79.3896 59.06 81.5596 52.98V61.6499H100.84V61.1101L96.5898 57.1299C95.8998 56.3499 95.8096 56.09 95.8096 54.96L95.7998 54.97Z"/>
<path d="M285.05 31.8L310.5 0.649902H306.15L279.11 33.74V0.649902H263.42V53.9299C263.42 55.0599 263.33 55.32 262.64 56.01L256.83 61.1399V61.6499H279.12V39.0601L284.92 31.96L302.92 61.6499H321.09L302.7 31.79H285.06L285.05 31.8Z"/>
<path d="M425.87 55.98H416.27C411.05 55.98 407.59 52.9301 406.87 48.8601L407.41 49.02L409.14 49.53C411.4 50.07 414.01 50.3301 417.31 50.3301C436.29 50.3301 439.13 40.6699 439.13 34.9199C439.13 30.4099 437.54 27.0401 434.12 24.3101L432.57 23.0701H443.57V11.6101L433.83 20.01C432.74 21.22 432.09 21.3599 430.82 20.6599C427.5 18.8799 422.46 17.8601 417.01 17.8601C403.34 17.8601 395.5 23.8501 395.5 34.3101C395.5 41.0501 398.68 45.73 404.93 48.24C405.13 48.32 405.17 48.57 405.01 48.71L395.45 56.99C395.58 63.07 399.58 68.38 406.2 69.8C406.23 69.8 408.14 70.23 410.14 70.3L424.04 70.71C431.46 71.01 434.63 73.2301 434.63 78.1201C434.63 80.2901 433.84 82.94 431.73 84.73L432.48 85.6799C439.56 82.0099 443.66 76.01 443.66 69.03C443.66 60.38 437.67 55.99 425.87 55.99V55.98ZM417.29 20.79C420.97 20.79 424.6 22.9601 424.6 34.0901C424.6 45.2201 421.56 47.51 417.29 47.51C413.68 47.51 409.98 45.03 409.98 33.98C409.98 26.18 412.66 20.78 417.29 20.78V20.79Z"/>
<path d="M175.05 54.97V18.5701H160.81V51.3201C159.25 53.5801 157.16 55.1399 154.38 55.1399C149 55.1399 147.69 49.93 147.69 42.03V18.5701H121.12V0.649902H120.71L106.96 12.74V18.5701H100.9V22.04H106.96V61.6499H121.12V22.04H133.45V44.02C133.45 56 138.31 62.3401 147 62.3401C154.03 62.3401 158.64 59.05 160.81 52.97V61.6399H180.09V61.1001L175.84 57.1201C175.15 56.3401 175.06 56.08 175.06 54.95L175.05 54.97Z"/>
<path d="M376.96 17.8899C369.93 17.8899 365.32 21.18 363.15 27.26V18.5901H343.87V19.1299L348.12 23.1101C348.81 23.8901 348.9 24.15 348.9 25.28V61.6599H363.14V28.9299C364.7 26.6699 366.79 25.1101 369.57 25.1101C374.95 25.1101 376.26 30.32 376.26 38.22V61.6699H390.5V36.23C390.5 24.25 385.64 17.9099 376.95 17.9099L376.96 17.8899Z"/>
<path d="M199.72 26.8701V18.5901H180.44V19.1299L184.69 23.1101C185.39 23.8901 185.47 24.15 185.47 25.28V61.6799H199.71V29.8899C201.21 27.6499 202.01 27.1699 202.96 27.1699C203.72 27.1699 204.12 27.0801 214 32.1201L217.12 19.29C215.69 18.53 213.98 17.96 212.08 17.96C206.19 17.96 202.57 22.0599 199.71 26.8899L199.72 26.8701Z"/>
<path d="M319.2 19.1201L323.45 23.1001C324.14 23.8801 324.23 24.14 324.23 25.27V61.6599H338.47V18.5901H319.19V19.1299L319.2 19.1201Z"/>
<path d="M22.8496 4.04004H54.2002V0.649902H0.530273V1.07007L6.34961 6.29004C7.03961 6.98004 7.12988 7.25012 7.12988 8.37012V61.6499H22.8496V32.78H49.1602V29.3899H22.8496V4.03003V4.04004Z"/>
<path d="M253.87 51.3999C253.58 51.5899 253.27 51.77 252.94 51.95C252.9 51.97 252.86 51.99 252.82 52.01C252.53 52.16 252.22 52.31 251.9 52.45C251.79 52.5 251.67 52.5501 251.56 52.6001C251.26 52.7301 250.95 52.85 250.64 52.97C250.61 52.98 250.58 52.99 250.55 53C248.5 53.75 246.21 54.22 244.29 54.22C237.6 54.22 231.87 49.6201 231.87 38.3301V38.1599H257.92C257.92 38.1599 258.05 36.94 257.96 34.7C257.26 21.95 247.84 17.9299 238.99 17.9299C227.44 17.9299 217.19 24.3599 217.19 40.4199C217.19 56.4799 227.52 62.3 238.47 62.3C243.85 62.3 248.27 60.8501 251.58 57.8701C251.58 57.8701 251.74 57.74 251.99 57.49C252.08 57.4 252.17 57.31 252.25 57.22C252.32 57.15 252.38 57.08 252.46 57C252.92 56.52 253.35 56.01 253.76 55.46C254.68 54.26 255.71 52.6399 256.49 50.6899L255.6 50.03C255.07 50.52 254.53 50.9599 253.87 51.3899V51.3999ZM238.81 19.5901C242.37 19.5901 244.71 22.63 244.71 34.01C244.71 34.14 244.71 34.4 244.71 34.72H231.91C232.3 23.58 234.69 19.6001 238.81 19.6001V19.5901Z"/>
</g>
<g class="logo-fk" fill="#FFD249">
<path d="M66.7197 94.0601C54.8997 94.0601 46.5195 103.25 46.5195 115.84C46.5195 128.43 54.8997 137.29 66.4697 137.29C73.4397 137.29 79.8698 134 84.0498 127.16L80.2197 124.72C77.0997 129.85 72.0997 132.73 66.4697 132.78C57.6797 132.83 51.5403 126.14 51.5303 115.95H85.6699C85.7599 115.29 85.7695 114.8 85.7695 114.48C85.7695 102.91 78.0602 94.0601 66.7002 94.0601H66.7197ZM51.9697 111.47C53.4897 103.74 59.0396 98.5701 66.8496 98.5701C74.6596 98.5701 79.45 103.88 80.54 111.47H51.9697Z"/>
<path d="M111.97 94.0601C105.9 94.0601 100.6 96.54 96.6699 100.03V94.8401H91.8203V136.42H96.8398V104.83C100.08 101.15 105.52 98.3899 111.11 98.3899C118.78 98.3899 123.28 103.64 123.28 110.82V136.42H128.3V110.82C128.3 101.28 122.38 94.0601 111.96 94.0601H111.97Z"/>
<path d="M144.95 80.98H139.93V94.8401H130.08V99.0801H139.93V136.42H144.95V99.0801H154.82V94.8401H144.95V80.98Z"/>
<path d="M191.34 126.44C188.12 130.08 182.67 132.86 177.36 132.86C170.03 132.86 165.53 127.61 165.53 120.43V94.8301H160.51V121.13C160.51 129.92 166.67 137.19 176.51 137.19C182.29 137.19 187.68 134.65 191.52 131.23V136.4H196.37V94.8201H191.34V126.42V126.44Z"/>
<path d="M224.72 94.0601C218.05 94.0601 213.84 96.07 209.74 100.04V94.8401H204.89V136.42H209.91V105.4C213.27 101.39 217.93 98.9401 222.74 98.8601C223.4 98.8601 224.16 98.9 224.71 98.97V94.0601H224.72Z"/>
<path d="M244.69 94.0601C232.87 94.0601 224.49 103.25 224.49 115.84C224.49 128.43 232.87 137.29 244.44 137.29C251.41 137.29 257.84 134 262.02 127.16L258.19 124.72C255.07 129.85 250.07 132.73 244.44 132.78C235.65 132.83 229.51 126.14 229.5 115.95H263.64C263.73 115.29 263.74 114.8 263.74 114.48C263.74 102.91 256.03 94.0601 244.67 94.0601H244.69ZM229.93 111.47C231.45 103.74 237 98.5701 244.81 98.5701C252.62 98.5701 257.41 103.88 258.5 111.47H229.93Z"/>
<path d="M273.4 105.3C273.4 101.15 277.3 98.6499 283.21 98.6499C287.68 98.6499 291.1 100.05 293.84 102.09L296.53 98.3799C292.99 95.8199 288.95 94.23 283.42 94.23C274.27 94.23 268.36 98.69 268.37 105.76C268.37 119.89 292.16 114.78 292.17 125.45C292.17 129.87 288.14 132.63 281.88 132.63C277.11 132.63 272.83 131.03 269.22 128.31L266.49 132.09C270.58 135.27 275.87 137.11 281.68 137.11C290.92 137.11 297.2 132.34 297.21 125C297.21 110.79 273.41 115.54 273.41 105.3H273.4Z"/>
<path d="M47.7002 75.4199L26.9102 130.43L6.16992 75.4199H0.530273L24.3203 136.43H29.54L53.3301 75.4199H47.7002Z"/>
</g>
</svg>
