<svg width="547" height="84" viewBox="0 0 547 84" fill="none" xmlns="http://www.w3.org/2000/svg">
<g class="logo-fk" fill="currentColor">
<path d="M106.93 42.26L140.9 0.679932H135.1L99 44.8601V0.679932H78.0498V71.8201C78.0498 73.3201 77.9298 73.6701 77.0098 74.6001L69.25 81.45V82.1299H99V51.97L106.75 42.48L130.78 82.1201H155.04L130.48 42.26H106.93Z"/>
<path d="M30.4004 5.18994H72.2598V0.669922H0.610352V1.22998L8.37988 8.19995C9.30988 9.12995 9.41992 9.47998 9.41992 10.98V82.1101H30.4102V43.5601H65.54V39.04H30.4102V5.17993L30.4004 5.18994Z"/>
</g>
<g class="logo-fk" fill="#FFD249">
<path d="M336.05 82.1101V32.26H322.9V26.6001H336.05V8.09009H342.76V26.6001H355.93V32.26H342.76V82.1101H336.05Z"/>
<path d="M411.39 26.5901V82.1001H404.91V75.1899C399.79 79.7499 392.59 83.1399 384.88 83.1399C371.73 83.1399 363.51 73.43 363.51 61.7V26.5801H370.22V60.76C370.22 70.34 376.23 77.3501 386.02 77.3501C393.11 77.3501 400.38 73.63 404.68 68.77V26.5801H411.39V26.5901Z"/>
<path d="M449.26 25.55V32.1001C448.52 32.0001 447.5 31.94 446.62 31.95C440.19 32.06 433.97 35.3399 429.49 40.6899V82.1101H422.78V26.6001H429.26V33.55C434.73 28.24 440.35 25.5601 449.26 25.5601V25.55Z"/>
<path d="M475.59 77.24C483.1 77.18 489.78 73.33 493.95 66.48L499.06 69.73C493.47 78.86 484.88 83.26 475.58 83.26C460.13 83.26 448.94 71.4801 448.94 54.6201C448.94 37.7601 460.13 25.55 475.91 25.55C491.69 25.55 501.37 37.3601 501.37 52.8101C501.37 53.2301 501.36 53.89 501.23 54.77H455.65C455.65 68.37 463.86 77.3 475.59 77.23V77.24ZM456.21 48.8H494.35C492.9 38.68 486.3 31.5801 476.07 31.5801C465.84 31.5801 458.24 38.48 456.2 48.8H456.21Z"/>
<path d="M525.28 83.03C517.52 83.03 510.46 80.5801 505.01 76.3301L508.66 71.28C513.48 74.91 519.19 77.05 525.57 77.05C533.93 77.05 539.3 73.36 539.31 67.46C539.3 53.22 507.53 60.0399 507.54 41.1699C507.53 31.7299 515.42 25.77 527.64 25.77C535.02 25.77 540.42 27.8901 545.14 31.3201L541.55 36.28C537.88 33.55 533.32 31.6799 527.35 31.6799C519.45 31.6799 514.24 35.02 514.25 40.55C514.25 54.22 546.01 47.8701 546.02 66.8501C546.01 76.6501 537.63 83.02 525.29 83.02L525.28 83.03Z"/>
<path d="M220.43 0.669922L188.67 82.1201H181.71L149.95 0.669922H157.47L185.16 74.1101L212.91 0.669922H220.43Z"/>
<path d="M237.99 77.24C245.5 77.18 252.18 73.33 256.35 66.48L261.46 69.73C255.87 78.86 247.28 83.26 237.98 83.26C222.53 83.26 211.34 71.4801 211.34 54.6201C211.34 37.7601 222.53 25.55 238.31 25.55C254.09 25.55 263.77 37.3601 263.77 52.8101C263.77 53.2301 263.76 53.89 263.63 54.77H218.05C218.05 68.37 226.26 77.3 237.99 77.23V77.24ZM218.61 48.8H256.75C255.3 38.68 248.7 31.5801 238.47 31.5801C228.24 31.5801 220.64 38.48 218.6 48.8H218.61Z"/>
<path d="M320.53 47.9299V82.1001H313.82V47.9299C313.82 38.3499 307.81 31.3401 297.57 31.3401C290.1 31.3401 282.85 35.0199 278.52 39.9399V82.1101H271.81V26.6001H278.29V33.53C283.53 28.87 290.61 25.5601 298.71 25.5601C312.62 25.5601 320.53 35.1999 320.53 47.9399V47.9299Z"/>
</g>
</svg>



