<svg width="781" height="86" viewBox="0 0 781 86" fill="none" xmlns="http://www.w3.org/2000/svg" id="logo">
  <g class="logo-fk" fill="currentColor">
    <path d="M470.73 35.73L465.17 33.3C460.05 31.04 457.18 29.2199 457.18 25.3999C457.18 21.3199 460.39 19.3201 464.21 19.3201H465.43C466.65 19.3201 466.91 19.7501 467.43 20.6201L474.2 32.6899H474.37L479.23 20.1001C473.59 18.3601 468.2 17.76 463.95 17.76C452.92 17.76 446.15 23.23 446.15 31.48C446.15 37.65 449.8 41.5501 454.57 43.8101L460.47 46.5901C466.11 49.1901 468.81 50.67 468.81 54.23C468.81 57.79 465.68 60.5701 460.65 60.5701H458.65C457.69 60.5701 457.17 60.1399 456.83 59.4399L449.88 45.98H449.71L444.93 59.4399C449.88 61.1799 455.96 62.1299 460.91 62.1299C472.46 62.1299 480.36 57.09 480.36 47.72C480.36 41.03 476.1 38.08 470.72 35.74L470.73 35.73Z"/>
    <path d="M331.09 13.6699C335 13.6699 338.12 11.15 338.12 7.23999C338.12 3.06999 334.99 0.469971 331.09 0.469971C327.19 0.469971 324.14 3.06999 324.14 7.23999C324.14 11.15 327.35 13.6699 331.09 13.6699Z"/>
    <path d="M95.7803 54.79V18.3899H81.54V51.1399C79.98 53.3999 77.8904 54.96 75.1104 54.96C69.7304 54.96 68.4199 49.7501 68.4199 41.8501V18.3899H54.1797V43.8501C54.1797 55.8301 59.0405 62.1699 67.7305 62.1699C74.7605 62.1699 79.37 58.88 81.54 52.8V61.47H100.82V60.9299L96.5703 56.95C95.8803 56.17 95.79 55.91 95.79 54.78L95.7803 54.79Z"/>
    <path d="M285.04 31.6201L310.49 0.469971H306.14L279.1 33.5601V0.469971H263.41V53.75C263.41 54.88 263.32 55.1401 262.63 55.8301L256.82 60.96V61.47H279.11V38.8799L284.91 31.78L302.91 61.47H321.08L302.69 31.6101H285.05L285.04 31.6201Z"/>
    <path d="M425.85 55.79H416.25C411.03 55.79 407.57 52.7399 406.85 48.6699L407.39 48.8301L409.12 49.3401C411.38 49.8801 413.99 50.1399 417.29 50.1399C436.27 50.1399 439.11 40.48 439.11 34.73C439.11 30.22 437.52 26.8501 434.1 24.1201L432.55 22.8799H443.55V11.4199L433.81 19.8201C432.72 21.0301 432.07 21.17 430.8 20.47C427.48 18.69 422.44 17.6699 416.99 17.6699C403.32 17.6699 395.48 23.6601 395.48 34.1201C395.48 40.8601 398.66 45.54 404.91 48.05C405.11 48.13 405.15 48.38 404.99 48.52L395.43 56.8C395.56 62.88 399.56 68.1901 406.18 69.6101C406.21 69.6101 408.12 70.0401 410.12 70.1101L424.02 70.52C431.44 70.82 434.61 73.0399 434.61 77.9299C434.61 80.0999 433.82 82.75 431.71 84.54L432.46 85.49C439.54 81.82 443.64 75.8201 443.64 68.8401C443.64 60.1901 437.65 55.8 425.85 55.8V55.79ZM417.28 20.6101C420.96 20.6101 424.59 22.7799 424.59 33.9099C424.59 45.0399 421.55 47.3301 417.28 47.3301C413.67 47.3301 409.97 44.85 409.97 33.8C409.97 26 412.65 20.6001 417.28 20.6001V20.6101Z"/>
    <path d="M175.03 54.79V18.3899H160.79V51.1399C159.23 53.3999 157.14 54.96 154.36 54.96C148.98 54.96 147.67 49.7501 147.67 41.8501V18.3899H121.1V0.469971H120.69L106.94 12.5601V18.3899H100.88V21.8601H106.94V61.47H121.1V21.8601H133.43V43.8401C133.43 55.8201 138.29 62.1599 146.98 62.1599C154.01 62.1599 158.62 58.87 160.79 52.79V61.46H180.07V60.9199L175.82 56.9399C175.13 56.1599 175.04 55.9 175.04 54.77L175.03 54.79Z"/>
    <path d="M376.95 17.71C369.92 17.71 365.31 21.0001 363.14 27.0801V18.4099H343.86V18.95L348.11 22.9299C348.8 23.7099 348.89 23.9701 348.89 25.1001V61.48H363.13V28.75C364.69 26.49 366.78 24.9299 369.56 24.9299C374.94 24.9299 376.25 30.14 376.25 38.04V61.49H390.49V36.05C390.49 24.07 385.63 17.73 376.94 17.73L376.95 17.71Z"/>
    <path d="M199.71 26.6799V18.3999H180.43V18.9399L184.68 22.9199C185.38 23.6999 185.46 23.9601 185.46 25.0901V61.49H199.7V29.7C201.2 27.46 202 26.98 202.95 26.98C203.71 26.98 204.11 26.8899 213.99 31.9299L217.11 19.1001C215.68 18.3401 213.97 17.77 212.07 17.77C206.18 17.77 202.56 21.87 199.7 26.7L199.71 26.6799Z"/>
    <path d="M319.19 18.9399L323.44 22.9199C324.13 23.6999 324.22 23.9601 324.22 25.0901V61.48H338.46V18.4099H319.18V18.95L319.19 18.9399Z"/>
    <path d="M22.8398 3.8501H54.1904V0.459961H0.519531V0.879883L6.33984 6.1001C7.02984 6.7901 7.12012 7.05993 7.12012 8.17993V61.46H22.8398V32.5901H49.1504V29.2H22.8398V3.84009V3.8501Z"/>
    <path d="M253.86 51.22C253.57 51.41 253.26 51.59 252.93 51.77C252.89 51.79 252.85 51.8101 252.81 51.8301C252.52 51.9801 252.21 52.13 251.89 52.27C251.78 52.32 251.66 52.3699 251.55 52.4199C251.25 52.5499 250.94 52.67 250.63 52.79C250.6 52.8 250.57 52.8101 250.54 52.8201C248.49 53.5701 246.2 54.04 244.28 54.04C237.59 54.04 231.86 49.4399 231.86 38.1499V37.98H257.91C257.91 37.98 258.04 36.76 257.95 34.52C257.25 21.77 247.83 17.75 238.98 17.75C227.43 17.75 217.18 24.18 217.18 40.24C217.18 56.3 227.51 62.1201 238.46 62.1201C243.84 62.1201 248.26 60.6699 251.57 57.6899C251.57 57.6899 251.73 57.5601 251.98 57.3101C252.07 57.2201 252.16 57.13 252.24 57.04C252.31 56.97 252.37 56.9001 252.45 56.8201C252.91 56.3401 253.34 55.83 253.75 55.28C254.67 54.08 255.7 52.46 256.48 50.51L255.59 49.8501C255.06 50.3401 254.52 50.78 253.86 51.21V51.22ZM238.8 19.3999C242.36 19.3999 244.7 22.4401 244.7 33.8201C244.7 33.9501 244.7 34.21 244.7 34.53H231.9C232.29 23.39 234.68 19.4099 238.8 19.4099V19.3999Z"/>
  </g>
  <g class="logo-ventures" fill="#FFD249">
    <path d="M549.77 19.1001C537.95 19.1001 529.57 28.2899 529.57 40.8799C529.57 53.4699 537.95 62.3301 549.52 62.3301C556.49 62.3301 562.92 59.04 567.1 52.2L563.27 49.76C560.15 54.89 555.15 57.7701 549.52 57.8201C540.73 57.8701 534.59 51.18 534.58 40.99H568.72C568.81 40.33 568.82 39.84 568.82 39.52C568.82 27.95 561.11 19.1001 549.75 19.1001H549.77ZM535.02 36.51C536.54 28.78 542.09 23.6101 549.9 23.6101C557.71 23.6101 562.5 28.92 563.59 36.51H535.02Z"/>
    <path d="M595.02 19.1001C588.95 19.1001 583.65 21.5801 579.72 25.0701V19.8799H574.87V61.46H579.89V29.8701C583.13 26.1901 588.57 23.4299 594.16 23.4299C601.83 23.4299 606.33 28.6801 606.33 35.8601V61.46H611.35V35.8601C611.35 26.3201 605.43 19.1001 595.01 19.1001H595.02Z"/>
    <path d="M628 6.02002H622.98V19.8799H613.13V24.1201H622.98V61.46H628V24.1201H637.87V19.8799H628V6.02002Z"/>
    <path d="M674.39 51.48C671.17 55.12 665.72 57.8999 660.41 57.8999C653.08 57.8999 648.58 52.65 648.58 45.47V19.8701H643.56V46.1699C643.56 54.9599 649.72 62.23 659.56 62.23C665.34 62.23 670.73 59.69 674.57 56.27V61.4399H679.42V19.8601H674.39V51.46V51.48Z"/>
    <path d="M707.77 19.1001C701.1 19.1001 696.89 21.1101 692.79 25.0801V19.8799H687.94V61.46H692.96V30.4399C696.32 26.4299 700.98 23.9799 705.79 23.8999C706.45 23.8999 707.21 23.94 707.76 24.01V19.1001H707.77Z"/>
    <path d="M727.73 19.1001C715.91 19.1001 707.53 28.2899 707.53 40.8799C707.53 53.4699 715.91 62.3301 727.48 62.3301C734.45 62.3301 740.88 59.04 745.06 52.2L741.23 49.76C738.11 54.89 733.11 57.7701 727.48 57.8201C718.69 57.8701 712.55 51.18 712.54 40.99H746.68C746.77 40.33 746.78 39.84 746.78 39.52C746.78 27.95 739.07 19.1001 727.71 19.1001H727.73ZM712.98 36.51C714.5 28.78 720.05 23.6101 727.86 23.6101C735.67 23.6101 740.46 28.92 741.55 36.51H712.98Z"/>
    <path d="M756.44 30.3501C756.44 26.2001 760.34 23.7 766.25 23.7C770.72 23.7 774.14 25.0999 776.88 27.1399L779.57 23.4299C776.03 20.8699 771.99 19.28 766.46 19.28C757.31 19.28 751.4 23.7401 751.41 30.8101C751.41 44.9401 775.2 39.83 775.21 50.5C775.21 54.92 771.18 57.6799 764.92 57.6799C760.15 57.6799 755.87 56.0801 752.26 53.3601L749.53 57.1399C753.62 60.3199 758.91 62.1599 764.72 62.1599C773.96 62.1599 780.24 57.39 780.25 50.05C780.25 35.84 756.45 40.5901 756.45 30.3501H756.44Z"/>
    <path d="M530.74 0.469971L509.96 55.48L489.22 0.469971H483.58L507.37 61.47H512.59L536.38 0.469971H530.74Z"/>
  </g>
</svg>
