<svg width="20" height="20" viewBox="0 0 20 20" fill="none" xmlns="http://www.w3.org/2000/svg">
    <path d="M13.6137 12.4129L20 18.7984L18.7984 20L12.4129 13.6137C11.0599 14.6983 9.377 15.2883 7.64291 15.2858C3.42402 15.2858 0 11.8618 0 7.64291C0 3.42402 3.42402 0 7.64291 0C11.8618 0 15.2858 3.42402 15.2858 7.64291C15.2883 9.377 14.6983 11.0599 13.6137 12.4129ZM11.9102 11.7828C12.9879 10.6745 13.5898 9.18884 13.5874 7.64291C13.5874 4.35815 10.9268 1.69842 7.64291 1.69842C4.35815 1.69842 1.69842 4.35815 1.69842 7.64291C1.69842 10.9268 4.35815 13.5874 7.64291 13.5874C9.18884 13.5898 10.6745 12.9879 11.7828 11.9102L11.9102 11.7828Z" fill="currentColor"/>
</svg>