<svg width="1127" height="1127" viewBox="0 0 1127 1127" fill="none" xmlns="http://www.w3.org/2000/svg">


<g class="spiral-wrap spiral-wrap--inner">
  <g id="inner">

<path d="M349.88 378.17L378.31 350.04L477.67 449.4L449.39 477.68L349.88 378.17Z" fill="#EDEDED"/>
<path d="M286 509.52L296.55 470.93L432.28 507.3L421.93 545.94L286 509.52Z" fill="#EDEDED"/>
<path d="M616.55 286L655.14 296.55L618.77 432.28L580.13 421.93L616.55 286Z" fill="#EDEDED"/>
<path d="M296.36 655.21L286.21 616.52L421.94 580.15L432.29 618.79L296.36 655.21Z" fill="#EDEDED"/>
<path d="M829.7 470.88L839.85 509.57L704.12 545.94L693.77 507.3L829.7 470.88Z" fill="#EDEDED"/>
<path d="M747.9 349.88L776.03 378.31L676.67 477.67L648.39 449.39L747.9 349.88Z" fill="#EDEDED"/>
<path d="M470.87 296.38L509.56 286.23L545.93 421.96L507.29 432.31L470.87 296.38Z" fill="#EDEDED"/>
<path d="M378.16 776.2L350.03 747.77L449.39 648.41L477.67 676.69L378.16 776.2Z" fill="#EDEDED"/>
<path d="M840.05 616.57L829.5 655.16L693.77 618.79L704.12 580.15L840.05 616.57Z" fill="#EDEDED"/>
<path d="M776.19 747.91L747.76 776.04L648.4 676.68L676.68 648.4L776.19 747.91Z" fill="#EDEDED"/>
<path d="M580.13 704.14L618.77 693.79V693.77L655.19 829.7L616.5 839.87L580.13 704.14Z" fill="#EDEDED"/>
<path d="M509.5 840.07L470.92 829.52H470.91L507.28 693.79L545.92 704.14L509.5 840.07Z" fill="#EDEDED"/>

</g>
</g>

<g class="spiral-wrap spiral-wrap--mid">

 <g id="mid">
<path d="M290.15 240.27L321.97 216.04L407.55 327.57L375.82 351.91L290.15 240.27Z" fill="#EDEDED"/>
<path d="M165.33 419.95L180.76 383.04L310.64 436.84L295.34 473.8L165.33 419.95Z" fill="#EDEDED"/>
<path d="M689.19 310.65L655.12 296.54L652.24 295.34L706.09 165.33L742.99 180.77L689.19 310.65Z" fill="#EDEDED"/>
<path d="M147.07 637.96L142 598.29L281.38 579.94L286.59 619.59L147.07 637.96Z" fill="#EDEDED"/>
<path d="M978.95 488.09L984.02 527.77L844.64 546.12L839.43 506.46L978.95 488.09Z" fill="#EDEDED"/>
<path d="M798.46 407.55L774.12 375.82L885.76 290.15L909.99 321.97L798.46 407.55Z" fill="#EDEDED"/>
<path d="M488.08 147.09L527.76 142.02L546.11 281.4L506.45 286.61L488.08 147.09Z" fill="#EDEDED"/>
<path d="M327.56 718.49L351.9 750.22L240.26 835.89L216.03 804.07L327.56 718.49Z" fill="#EDEDED"/>
<path d="M960.69 706.1L945.25 743.01L815.37 689.21L830.68 652.25L960.69 706.1Z" fill="#EDEDED"/>
<path d="M835.88 885.77L804.06 910L718.48 798.47L750.21 774.13L835.88 885.77Z" fill="#EDEDED"/>
<path d="M579.92 844.66L619.57 839.43L637.94 978.95L598.27 984.04L579.92 844.66Z" fill="#EDEDED"/>
<path d="M436.83 815.39L473.78 830.7L419.93 960.71L383.03 945.27L436.83 815.39Z" fill="#EDEDED"/>
</g>
</g>
<g class="spiral-wrap spiral-wrap--outer">

 <g id="outer">
<path d="M353.15 196.49L319.42 217.99L243.77 99.33L277.5 77.83L353.15 196.49Z" fill="#EDEDED"/>
<path d="M197.92 350.65L180.22 384.7H180.21L179.46 386.14L54.62 321.2L73.08 285.71L197.92 350.65Z" fill="#EDEDED"/>
<path d="M775.79 197.92L740.3 179.46L805.24 54.62L840.73 73.08L775.79 197.92Z" fill="#EDEDED"/>
<path d="M140.6 561.79L142.35 601.74L1.76 607.92L0 567.96L140.6 561.79Z" fill="#EDEDED"/>
<path d="M985.84 564.67L984.08 524.71L1124.67 518.53L1126.43 558.49L985.84 564.67Z" fill="#EDEDED"/>
<path d="M929.95 353.14L908.45 319.41L1027.11 243.76L1048.61 277.49L929.95 353.14Z" fill="#EDEDED"/>
<path d="M564.67 140.59L524.7 142.35L518.52 1.76L558.48 0L564.67 140.59Z" fill="#EDEDED"/>
<path d="M196.49 773.3L217.99 807.03L99.33 882.68L77.83 848.95L196.49 773.3Z" fill="#EDEDED"/>
<path d="M928.51 775.8L946.97 740.31L1071.81 805.25L1053.35 840.74L928.51 775.8Z" fill="#EDEDED"/>
<path d="M773.3 929.95L807.03 908.45L882.68 1027.11L848.95 1048.61L773.3 929.95Z" fill="#EDEDED"/>
<path d="M561.78 985.85L601.74 984.09L607.92 1124.68L567.96 1126.44L561.78 985.85Z" fill="#EDEDED"/>
<path d="M350.65 928.52L386.14 946.98L321.2 1071.82L285.71 1053.36L350.65 928.52Z" fill="#EDEDED"/>
</g>
</g>
</svg>
