<svg width="116" height="36" viewBox="0 0 116 36" fill="none" xmlns="http://www.w3.org/2000/svg">
  <g>
    <path d="M65.3277 9.16145C68.6273 9.16145 71.0906 7.28212 71.0906 4.40447C71.0906 1.52681 68.6273 0 65.7215 0C62.4213 0 59.9587 1.82068 59.9587 4.75699C59.9587 7.6933 62.4213 9.16145 65.3277 9.16145ZM107.726 9.16087C111.025 9.16087 113.489 7.28154 113.489 4.40388C113.489 1.52623 111.025 0 108.12 0C104.819 0 102.357 1.82068 102.357 4.75699C102.357 7.6933 104.819 9.16145 107.726 9.16145V9.16087ZM32.5131 27.2236V8.77641C32.5131 1.97051 35.8626 3.006 35.8626 1.32935C35.8626 0.786926 35.4989 0.436149 34.8777 0.441376C34.2229 0.447183 31.1141 0.747435 28.4183 0.747435C25.9463 0.747435 22.6136 0.447764 21.9588 0.441376C21.337 0.435568 20.974 0.786926 20.974 1.32935C20.974 3.006 23.8943 1.97051 23.8943 8.77641V15.5045C21.8126 14.1995 20.017 12.1192 18.8413 10.8067C18.5809 10.5164 18.2422 10.3799 17.8744 10.3799C17.5363 10.3799 17.1999 10.528 16.9505 10.8067C15.8149 12.0739 14.0076 14.0601 11.97 15.3674V8.77583C11.97 1.96993 14.8903 3.00542 14.8903 1.32877C14.8903 0.786346 14.5267 0.435568 13.9055 0.440795C13.2507 0.446603 9.918 0.746854 7.44604 0.746854C4.75078 0.746854 1.64198 0.447183 0.98658 0.440795C0.36366 0.435568 0 0.786926 0 1.32935C0 3.006 3.3495 1.97051 3.3495 8.77641V27.2242C3.3495 34.0301 0 32.9946 0 34.6712C0 35.2137 0.36366 35.5644 0.98484 35.5592C1.63966 35.5534 4.74846 35.2531 7.4443 35.2531C9.91626 35.2531 13.2484 35.5528 13.9038 35.5592C14.5255 35.565 14.8886 35.2137 14.8886 34.6712C14.8886 32.9946 11.9683 34.0301 11.9683 27.2242V21.7081C13.6578 21.0112 16.3282 19.8973 17.4017 19.3404C17.8541 19.1058 18.1151 19.147 18.364 19.3636C18.9701 19.8909 19.655 20.4369 20.2727 20.4369C20.6428 20.4369 20.9658 20.2789 21.2756 20.0861C21.6497 19.8544 21.9333 19.9026 22.2146 20.1651C22.8271 20.7359 23.3955 21.2069 23.8925 21.5664V27.2242C23.8925 34.0301 20.9722 32.9946 20.9722 34.6712C20.9722 35.2137 21.3359 35.5644 21.9571 35.5592C22.6119 35.5534 25.9446 35.2531 28.4165 35.2531C31.1118 35.2531 34.2206 35.5528 34.876 35.5592C35.4977 35.565 35.8608 35.2137 35.8608 34.6712C35.8608 32.9946 32.5113 34.0301 32.5113 27.2242L32.5131 27.2236ZM113.193 28.6046V11.8597C113.193 10.823 112.789 10.3799 112.09 10.3799C111.775 10.3799 111.401 10.467 110.977 10.6302C109.056 11.3701 106.679 11.7731 102.64 12.168C102.183 12.2139 101.847 12.5961 101.847 12.9974C101.847 14.4632 104.573 14.0538 104.573 19.0105V28.4327C104.573 32.6717 102.977 33.508 101.451 33.508C99.6898 33.508 98.3703 32.2715 98.3703 28.4327V1.47977C98.3697 0.441376 97.9661 0 97.2666 0C96.9522 0 96.5781 0.0871136 96.1536 0.250307C94.2326 0.990192 91.8558 1.39324 87.8166 1.78815C87.3596 1.83403 87.0238 2.21617 87.0238 2.61747C87.0238 4.08331 89.7504 3.67387 89.7504 8.63064V12.0896C88.5358 10.9868 86.9269 10.3793 84.8505 10.3793C77.7507 10.3793 73.4471 16.1143 73.4471 23.1891C73.4471 30.2639 76.4881 35.9988 83.8164 35.9988C86.873 35.9988 89.0799 34.9204 90.2932 32.4417C90.4075 32.2088 90.5252 32.1008 90.6517 32.1008C90.828 32.1008 90.904 32.318 90.9312 32.5433C91.165 34.4476 91.9248 35.5575 94.7401 35.5575C98.6226 35.5575 100.471 35.2514 104.884 35.2514C108.904 35.2514 114.042 35.5575 115.162 35.5575C115.655 35.5575 116 35.2613 116 34.8176C116 33.4365 113.193 34.2752 113.193 28.6035V28.6046ZM86.4623 32.3465C83.9741 32.3465 82.9922 28.3613 82.9922 22.9498C82.9922 17.5383 83.9736 13.5526 86.4623 13.5526C88.9511 13.5526 89.9325 17.5377 89.9325 22.9498C89.9325 28.3619 88.9511 32.3465 86.4623 32.3465ZM58.4315 28.4333C58.1392 28.4333 57.9379 28.5593 57.6613 28.9072C56.1713 30.779 53.9377 31.5677 52.0196 31.5677C49.0141 31.5677 46.3362 29.2423 45.2876 25.1526C50.6578 26.1405 58.1873 23.8169 58.1873 17.8821C58.1873 13.7547 55.5356 10.3799 47.7259 10.3799C39.9162 10.3799 35.264 15.6067 35.264 22.9666C35.264 30.3266 39.8199 36 47.774 36C53.5282 36 57.4618 33.6334 59.0022 29.8631C59.3879 28.9194 58.9361 28.4333 58.4309 28.4333H58.4315ZM44.8543 23.0009C44.6849 21.8243 44.5921 20.5141 44.5921 19.057C44.5921 15.1613 45.2429 12.9341 47.3645 12.9341C49.2925 12.9341 49.8707 15.0747 49.8707 17.558C49.8707 21.1378 49.1156 23.1542 44.8543 23.0009ZM70.7948 28.6046V11.8597C70.7948 10.823 70.3911 10.3799 69.6916 10.3799C69.3773 10.3799 69.0032 10.467 68.5786 10.6302C66.6577 11.3701 64.2808 11.7731 60.2417 12.168C59.7847 12.2139 59.4488 12.5961 59.4488 12.9974C59.4488 14.4632 62.1754 14.0538 62.1754 19.0105V28.6046C62.1754 34.2763 59.3676 33.4377 59.3676 34.8187C59.3676 35.2624 59.7127 35.5586 60.2052 35.5586C61.2103 35.5586 63.1144 35.2526 66.4848 35.2526C70.2473 35.2526 71.7883 35.5586 72.7645 35.5586C73.2569 35.5586 73.602 35.2624 73.602 34.8187C73.602 33.4377 70.7948 34.2763 70.7948 28.6046Z" fill="#99EB21"/>
  </g>
</svg>
